<?xml version="1.0" encoding="UTF-8"?>
<svg id="Layer_1" data-name="Layer 1" xmlns="http://www.w3.org/2000/svg" viewBox="0 0 185.98 157.78">
  <defs>
    <style>
      .cls-1 {
        fill: #646464;
      }
    </style>
  </defs>
  <path class="cls-1" d="M107.98,86.05l-30.27.25-2.71,9.28c-12.04-2.92-50.27-1.19-50.14-16.89l.22-26.32c.05-6.26,4.54-11.83,11.28-11.95l27.67-.5,1.53-16.19c.35-3.75,9.63-6.76,13.76-6.79l25.86-.17c4.75-.03,14.28,2.6,15.37,6.97l1.65,16.1,28.49.53c5.04.09,10.24,5.12,10.27,9.97l.16,26.26c.11,18.58-36.75,16.25-50.62,18.2l-2.51-8.76ZM112.29,39.9l-1.01-13.14-36.31-.05c-.44,4.24-.54,9.41-.3,13.38l37.63-.19Z"/>
  <path class="cls-1" d="M160.68,93.59l.3,35.47c.06,7.19-5.93,11.95-13.16,11.95l-111.36-.08c-6,0-11.43-6.31-11.38-11.85l.34-35.29c16.76,5.65,33.22,7.82,50.39,9.33.06,4.02,1.32,10.2,3.75,11.51l28.14-.16,2.55-11.97c17.2-.91,33.75-2.56,50.44-8.92Z"/>
</svg>