<?xml version="1.0" encoding="UTF-8"?>
<svg id="Layer_1" data-name="Layer 1" xmlns="http://www.w3.org/2000/svg" viewBox="0 0 185.98 157.78">
  <defs>
    <style>
      .cls-1 {
        fill: #646464;
      }
    </style>
  </defs>
  <path class="cls-1" d="M139.35,157.72l-92.86.06.15-45.88c.08-24.43,18.86-44.03,41.99-45.78,22.95-1.74,46.77,14.01,49.74,38.8,2.05,17.06.96,33.91.99,52.8Z"/>
  <path class="cls-1" d="M119.12,25.55c1.66,16.89-10.47,30.2-25.44,30.66-15.73.48-27.96-11.9-27.89-28.3.07-14.95,10.55-26.48,24.12-27.78,14.66-1.4,27.61,9.15,29.21,25.42Z"/>
  <path class="cls-1" d="M184.7,149.65l-36.09.55.43-38.54c.09-8.51-2.24-16.84-5.36-25.6,14.36-1.75,32.76,2.77,38.49,17.94,5.4,14.3,3.91,29.13,2.54,45.65Z"/>
  <path class="cls-1" d="M36.71,149.88l-35.84-.66c-1-13.51-1.44-25.08.33-37.61,2.73-19.36,22.28-28.94,40.93-24.82-2.81,7.19-5.97,15.37-5.89,22.79l.46,40.3Z"/>
  <path class="cls-1" d="M28.44,33.15c12.6-4.4,24.2,2.62,28,14.02,3.72,11.16-2,23.46-14.41,27.58-10.16,3.37-22.35-1.42-26.81-12.95-3.97-10.24.23-24.12,13.22-28.65Z"/>
  <path class="cls-1" d="M142.24,32.87c12.15-4.17,24.3,2.38,27.97,13.84,3.66,11.4-1.6,23.31-13.58,27.9-10.28,3.94-22.52-1.42-27.06-11.87-5.15-11.85.02-25.52,12.67-29.87Z"/>
</svg>