<?xml version="1.0" encoding="UTF-8"?>
<svg id="Layer_1" data-name="Layer 1" xmlns="http://www.w3.org/2000/svg" viewBox="0 0 185.98 157.78">
  <defs>
    <style>
      .cls-1 {
        fill: #646464;
      }
    </style>
  </defs>
  <path class="cls-1" d="M97.65,138.48l-69.42.11c-1.25-12.93-2.03-24.41-.13-36.55,2.6-16.52,17.54-28.11,33.29-29.15,15.37-1.02,33.28,10.11,36.04,26.69,2.11,12.7,1.02,24.24.22,38.9Z"/>
  <path class="cls-1" d="M107.15,138.86l-.07-28.38c-.02-9.79-4.44-19.27-10.02-27.08,9.49-10.6,24.9-14.4,38.44-8.64,27.54,11.7,24.08,37.66,22.42,63.51l-50.78.6Z"/>
  <path class="cls-1" d="M127.18,69.59c-16.72,2.84-30.03-9.76-30.46-24.2-.48-15.72,13.07-28.05,29.5-26.09,13.28,1.59,21.64,11.96,22.29,24.3s-7.41,23.63-21.32,25.99Z"/>
  <path class="cls-1" d="M55.71,20.43c15.33-5.11,28.74,3.28,33.25,16.79,4.26,12.78-3.01,26.79-15.55,31.26-13.84,4.93-27.87-1.8-33.26-14.86s.91-28.31,15.56-33.19Z"/>
</svg>