<?xml version="1.0" encoding="UTF-8"?>
<svg id="Layer_1" data-name="Layer 1" xmlns="http://www.w3.org/2000/svg" viewBox="0 0 185.98 157.78">
  <defs>
    <style>
      .cls-1 {
        fill: #646464;
      }
    </style>
  </defs>
  <path class="cls-1" d="M161.36,148.5l-136.75.13c1.23-43.96,52.96-21.12,52.95-45.83,0-11.48-19.86-17.43-21.66-43.46-.22-3.16,2.45-10.66,2.4-13.84-.35-21.94,15.88-36.89,35.66-36.32,21.63.62,33.98,18.66,34.64,40.17.25,8.21,1.89,14.19-1.92,21.7-3.44,6.78-6.05,14.41-11.24,19.61-4.08,4.09-7.07,8.67-6.57,13.97.35,3.72,5.56,10.05,9.53,10.85l17,3.43c14.82,1.56,25.9,12.28,25.96,29.6Z"/>
</svg>