<?xml version="1.0" encoding="UTF-8"?>
<svg id="Layer_1" data-name="Layer 1" xmlns="http://www.w3.org/2000/svg" viewBox="0 0 185.98 157.78">
  <defs>
    <style>
      .cls-1 {
        fill: #646464;
      }
    </style>
  </defs>
  <path class="cls-1" d="M129.25,119.35c-24.74,17.41-62.77,36.18-92.59,24.88-12.24-4.64-18.71-17.09-15.36-29.96,7.5-28.8,36.79-48.59,59.29-63.3-2.58-3.09-4.52-6.54-5.64-10.07-.6-1.9-3.26-9.72-2.36-14.48,1.54-8.13,7.47-12.43,13.48-11.94,3.36.28,8.95,2.78,10.27,2.6s5.52-4.74,8.95-6.1c5.24-2.08,12.51-.59,16.11,6.77,4.65,9.5-1.15,23-1.51,23.55,14.99.44,34.34-1.15,43.05,17.06,11.03,23.06-15.32,48.07-33.69,61ZM142.71,82.47c3.16-4.36,6.02-13.64,2.98-17.6-12.5-16.33-84.01,7.73-103.5,50.23-12.44,27.13,61.37,21.31,100.52-32.62Z"/>
</svg>