<?xml version="1.0" encoding="UTF-8"?>
<svg id="Layer_1" data-name="Layer 1" xmlns="http://www.w3.org/2000/svg" xmlns:xlink="http://www.w3.org/1999/xlink" viewBox="0 0 1306.9 1527.59">
  <defs>
    <style>
      .cls-1 {
        fill: none;
      }

      .cls-2 {
        fill: #775487;
      }

      .cls-3 {
        fill: #2b2f32;
      }

      .cls-4 {
        fill: #6eb360;
      }

      .cls-5 {
        fill: #efd07b;
      }

      .cls-6 {
        fill: #3d4042;
      }

      .cls-7 {
        fill: #f5f2ef;
      }

      .cls-8 {
        fill: #2b2c2d;
      }

      .cls-9 {
        fill: #f46e5a;
      }

      .cls-10 {
        fill: #2b2928;
      }

      .cls-11 {
        fill: #fdc960;
      }

      .cls-12 {
        clip-path: url(#clippath);
      }

      .cls-13 {
        fill: #353a3d;
      }
    </style>
    <clipPath id="clippath">
      <path class="cls-1" d="M73.03,0h1160.87c40.29,0,73,32.71,73,73v1381.56c0,40.3-32.72,73.03-73.03,73.03H73.03c-40.3,0-73.03-32.72-73.03-73.03V73.03C0,32.72,32.72,0,73.03,0Z"/>
    </clipPath>
  </defs>
  <path class="cls-3" d="M73.03,0h1160.87c40.29,0,73,32.71,73,73v1381.56c0,40.3-32.72,73.03-73.03,73.03H73.03c-40.3,0-73.03-32.72-73.03-73.03V73.03C0,32.72,32.72,0,73.03,0Z"/>
  <g>
    <path class="cls-13" d="M1,133.48v-60.46C1,33.31,33.31,1,73.03,1h1160.84c39.72,0,72.03,32.31,72.03,72.03v60.46H1Z"/>
    <path class="cls-8" d="M1233.87,2c39.16,0,71.03,31.86,71.03,71.03v59.46H2v-59.46C2,33.86,33.86,2,73.03,2h1160.84M1233.87,0H73.03C32.7,0,0,32.7,0,73.03v61.46h1306.9v-61.46C1306.9,32.7,1274.2,0,1233.87,0h0Z"/>
  </g>
  <circle class="cls-9" cx="71.52" cy="72.78" r="18.97"/>
  <circle class="cls-11" cx="150.49" cy="72.78" r="18.97"/>
  <circle class="cls-4" cx="229.46" cy="72.78" r="18.97"/>
  <g>
    <path class="cls-6" d="M73,1526.59c-39.7,0-72-32.3-72-72V135.48h242.91v1391.1H73Z"/>
    <path class="cls-8" d="M242.91,136.48v1389.1H73c-39.15,0-71-31.85-71-71V136.48h240.91M244.91,134.48H0v1320.1C0,1494.9,32.68,1527.59,73,1527.59h171.91V134.48h0Z"/>
  </g>
  <rect class="cls-3" x="52.55" y="210.99" width="138.62" height="138.62" rx="29.11" ry="29.11"/>
  <g>
    <path class="cls-7" d="M164.16,666.22c-.03,1.77-4.59,2.06-4.69.29l-.53-9.91-9.08-.16c-1.26-.02-1.44-1.28-1.64-1.92-.3-.96-.02-3.05,1.22-3.07l12.51-.23c1.4-.03,2.45,1.02,2.43,2.41,0,0-.21,12.58-.21,12.58Z"/>
    <path class="cls-7" d="M86.01,656.42l-.26,9.43c-.03,1.14-1.71,1.92-2.59,2.25-.81.3-2.43-.98-2.43-2.26l-.06-12.14c0-1.46,1.07-2.47,2.53-2.46l11.96.09c1.18,0,1.46,1.39,1.57,2.04.17.99-.04,2.87-1.37,2.89l-9.36.16h0Z"/>
    <path class="cls-7" d="M95.04,727.17c1.57.03,1.82,1.62,1.92,2.4.12.95-.19,2.79-1.63,2.8l-12.2.11c-1.82.02-2.63-1.53-2.58-3.21l.43-12c.06-1.58,3.97-1.62,4.42-.1.97,3.29.4,6.59.5,9.85l9.14.15h0Z"/>
    <path class="cls-7" d="M150.03,732.43c-1.57-.01-1.88-1.47-1.95-2.22-.1-1.07.27-2.93,1.67-2.94l9.26-.09.35-9.56c.06-1.84,4.61-1.99,4.65-.2l.32,13.02c.03,1.24-1.2,2.08-2.34,2.08l-11.96-.08h0Z"/>
    <path class="cls-7" d="M131.77,732.34l-18.21.05c-1.45,0-1.69-1.92-1.6-2.81.11-1.04.5-2.42,2.14-2.41l17.42.05c1.27,0,1.58,1.66,1.66,2.37s-.06,2.76-1.42,2.77h0Z"/>
    <path class="cls-7" d="M131.85,656.16l-18.31.19c-1.22.01-1.54-1.73-1.55-2.4-.01-.8.31-2.63,1.73-2.61l18.14.12c1.73.01,1.96,4.69,0,4.72h0Z"/>
    <path class="cls-7" d="M85.79,699.83c0,1.46-1.71,1.59-2.36,1.6-.76.02-2.63-.2-2.65-1.49l-.17-15.35c-.02-1.79,1.66-2.31,2.79-2.28,1.61.04,2.46,1.19,2.45,2.95l-.05,14.56h0Z"/>
    <path class="cls-7" d="M164.07,700.23c-.03,1.82-4.65,1.69-4.68,0l-.27-14.96c-.03-1.57.92-2.56,2.11-2.88.96-.25,3.07.16,3.05,1.8l-.2,16.05h0Z"/>
  </g>
  <g>
    <path class="cls-7" d="M127.5,894.43l-12.77-11.33c8.14-10.13,42.28-47.15,49.59-40.76,7.22,6.32-26.91,42.94-36.82,52.1h0Z"/>
    <path class="cls-7" d="M115.53,914.53c-9.43,10.26-24.51,12.09-37.12,6.02,11.92-5.03,9.6-15.17,14.8-22.55,3.97-5.64,10.61-9.39,17.69-7.97,2.97,2.53,7.05,5.91,9.4,9.08,1.76,5.33-.85,11.17-4.78,15.44Z"/>
  </g>
  <path class="cls-7" d="M113.51,1140.97c-4.65,3.13-9.91,1.8-12.93-2.28l-22.23-22.05c-3.45-3.42-2.34-9.2.87-12.4l49.38-49.42c3.28-3.28,8.8-5.29,12.57-1.64l22.49,21.72c3.74,3.62,5.09,8.44,2.53,13.24l-52.69,52.85h0ZM110.59,1134.88l19.02-19.08-24.59-24.36c-1.35-1.33-3.12-1.34-4.26.22l-16.35,16.38c-1.72,1.73-1.16,4.74.49,6.39l20.03,19.98c1.25,1.24,4.27,1.86,5.66.47h0Z"/>
  <g class="cls-12">
    <rect class="cls-7" x="331.68" y="237.03" width="1291.3" height="1368.55"/>
  </g>
  <path class="cls-7" d="M171.68,460.86l-27.39-26.83c-1.13-1.11-3.23-1.39-4.39-.21l-20.11,20.42c-1.51,1.53,2.2,5.25,3.6,5.84-2.75,3.53-6.12,5.01-9.55,6.83l-18.95,10.04-9,24.35-7.43,19.89-1.49,5.28c-.55,1.98-.43,3.56.73,4.52,1.25,1.03,2.57,1.15,4.64.29l49.3-20.45,10.98-25.72c.65-1.53,1.61-3.12,3.48-3.66.44,1.22,3.69,4.51,4.91,3.32l20.19-19.66c.9-.88,1.56-3.19.48-4.25h0ZM135.53,486.93l-8.5,19.85-37.06,15.03,23.34-23.76c2.05-2.09,6.9-.69,6.27-5.76-.29-2.37-2.27-4.86-5.74-4.87-3.8-.02-4.1,4-4.52,6.74-6.85,6.93-13.25,14.97-21.7,21.29l11.91-34.98,13.77-6.84c5.2-2.59,9.93-5.32,14.27-9.56l14.34,13.62c-2.63,2.88-4.83,5.65-6.38,9.25h0Z"/>
  <path class="cls-7" d="M167.54,278.95c-1.43-.48-13.68-13.58-15.41-11.12-1.07,1.16.67,5.88-1.26,8.8-6.01.12-20.7-.2-26.42-.21.17-5.41.05-18.5-.1-24.08-.08-4.84,6.09-1.28,10.03-3.71-14.2-15.23-9.5-22.86-25.42-2.91-.7.8-2.6,2.72-.77,3.56,2.14.57,9.41-1.08,8.9,3-.13,5.99-.24,18.17-.19,24.13-7.26-.05-17.11.44-24.44.37-5.3.05-.55-6.96-4.24-9.82-19.54,16.15-19.06,11.35.56,26.83,2.36-4.06-.96-9.88,3.71-9.83,7.05.1,17.31.2,24.41.16-.04,6.27.03,18.02.18,24.23.08,4.92-5.63,1.26-10.04,3.8,15.23,17.49,10.69,21.27,26.56,1.12.57-.64.07-1.57-.24-1.75-2.19-1.37-8.9,1.5-9-2.69.08-5.96.1-18.68.09-24.71,7.28-.06,18.84.04,26.21.2,2.33,2.13.23,6.65,1.46,8.54,1.08,2.86,13.85-10.35,14.91-10.47.96-.79,1.68-2.46.52-3.46Z"/>
  <path class="cls-10" d="M613.45,538.63c-3.56,2.07-6.3,3.12-10.24,4.35l-12.65-28.36-14.8,14.74c-.75.74-1.34,1.27-2.18,1.35-.6.06-2.25-.19-2.26-1.33l-.05-71.25c0-1.31,2.29-2.29,3.31-1.28l50.21,50.1c.65.65.67,1.49.52,2.02-.2.7-1.01,1.36-2.13,1.36l-22.19.02,12.46,28.27h0Z"/>
  <circle class="cls-5" cx="719.79" cy="1153.49" r="200.19"/>
  <rect class="cls-2" x="719.79" y="841.6" width="457.14" height="361.93" rx="9.45" ry="9.45" transform="translate(1970.93 74.21) rotate(90)"/>
  <path class="cls-7" d="M106.76,1364.79c-2.4-.02-2.33-6.34-.69-7.41,3.55-2.32,10.66-.28,10.67-6.18l.13-63.71-12.87-.13c-9.37-.09-8.58,9.31-10.96,12.28-1.22,1.52-5.72,1.51-6.97-.07-1.05-6.83-.91-14.26-.34-21.81l77.48-.15c1,7.2.89,14.04-.07,21.09-.3,2.17-3.91,2.21-5.59,1.75-3.54-.98-3.5-12.52-9.3-12.66l-16.18-.37.04,63.42c0,6.69,8.82,4.19,10.86,6.59,1.5,1.76,1.37,5.67-.34,7.59l-35.87-.23h0Z"/>
</svg>