<?xml version="1.0" encoding="UTF-8"?>
<svg id="Layer_1" data-name="Layer 1" xmlns="http://www.w3.org/2000/svg" viewBox="0 0 185.98 157.78">
  <defs>
    <style>
      .cls-1 {
        fill: #646464;
      }
    </style>
  </defs>
  <path class="cls-1" d="M102.34,112.3l-32.04,30.46-36.31-35.33c-5.53-5.38-9.46-15.57-10.06-22.92-1.11-13.41,6.65-24.06,17.24-27.01,12.61-3.52,24.31,1.93,30.8,13.2,6.92-11.19,17.95-16.02,28.78-13.32,11.02,2.75,18.15,13.99,16.43,26.73-1.39,10.32-6.85,20.59-14.85,28.2Z"/>
  <path class="cls-1" d="M153.23,48.03l-18.94,18.01-21.46-20.88c-3.27-3.18-5.59-9.2-5.95-13.55-.65-7.93,3.93-14.22,10.19-15.97,7.45-2.08,14.37,1.14,18.2,7.8,4.09-6.62,10.61-9.47,17.01-7.87s10.73,8.27,9.71,15.8c-.82,6.1-4.05,12.17-8.78,16.66Z"/>
</svg>