<?xml version="1.0" encoding="UTF-8"?>
<svg id="Layer_4" data-name="Layer 4" xmlns="http://www.w3.org/2000/svg" viewBox="0 0 920.06 789.46">
  <defs>
    <style>
      .cls-1 {
        fill: #fff;
      }

      .cls-2 {
        fill: #6cb9e0;
      }
    </style>
  </defs>
  <path class="cls-1" d="M855.01,260.96c-.35.07-.69.26-1.28.91-3.44-5.95-8.4-10.73-14.61-14.88-38.47-25.72-97.2-19.92-138.63-.99-18.54,8.56-36.27,17.79-51.15,31.64l-32,29.79,78.06,62.39,37.07,28.98,85.92,62.44c11.3,8.21,21.03,16.81,28.86,28.14,14.37,20.79,15.87,45.88,4.12,68.14l-18.71,35.43-55.3,101.05-20.81,37.76c-.72-.16-1.28.16-1.84,1.21.56-6.53,1.96-13.23.92-20.21-3.61-24.34-21.63-38.42-41.46-51.38-21.43-14.01-42.07-27.57-62.53-43.27l-52.55-40.33-85.37-69.16-53.98-44.79-45.45,38.13c-52.78,44.28-105.95,86.82-161.16,127.73l-12.14,8.2-46.09,30.72c-23.42,15.61-37.73,42.94-27.01,68.66l-29.61-51.93-51.98-94.64-17.66-33.35c-8.14-15.37-10.28-33.11-4.73-49.72,10.68-31.94,39.11-46.71,64.99-65.78l60.81-44.81,57.18-44.75,55.59-44.83-15.9-15.02c-18.08-17.08-37.43-32.2-59.72-42.99-25.01-12.1-51.09-19.32-79.32-19.65-22.97-.27-45.2,3.53-64.49,15.47-6.55,4.06-12.63,9.12-16.64,15.92-.82,1.49-2.11-.51-1.08-1.54,4.82-15.22,11.24-29.61,18.45-44.46,10.19-20.99,19.52-41.53,31-61.77,16.5-29.09,45.79-58.28,73.66-77.1,54.67-36.92,118.26-27.55,174.71,1.91,22.62,12.15,41.53,28.06,60.16,45.65l36.56,34.52,52.43-48.77c38.6-35.91,99.55-61.25,152.79-56.8,26.68,2.23,50.57,11.57,72.35,27.45,19.68,14.35,36.63,30.89,52.02,49.72,8.76,10.72,15.36,21.86,21.76,34.22,13.2,25.52,25.33,50.72,36.64,76.98l7.15,19.76Z"/>
  <path class="cls-2" d="M189.72,397.03l-16.04-11.63-45.4-33.32-29.88-21.02c-10.24-7.2-19.78-14.3-27.75-24.21s-12.94-23.09-9.14-35.1l3.84-12.12c-1.04,1.03.25,3.03,1.08,1.54,4.01-6.8,10.09-11.86,16.64-15.92,19.29-11.94,41.52-15.75,64.49-15.47,28.23.34,54.3,7.55,79.32,19.65,22.29,10.79,41.65,25.91,59.72,42.99l15.9,15.02-55.59,44.83-57.18,44.75Z"/>
  <path class="cls-2" d="M855.01,260.96l1.56,5.7c5.41,13.86,2.3,28.8-7.32,40.32-9.12,10.92-20.17,18.69-31.82,27.16l-86.12,62.57,1.17,2.09-37.07-28.98-78.06-62.39,32-29.79c14.88-13.85,32.61-23.08,51.15-31.64,41.42-18.93,100.16-24.73,138.63.99,6.21,4.15,11.17,8.92,14.61,14.88.59-.64.93-.84,1.28-.91Z"/>
  <path class="cls-2" d="M756.56,731.77c-5.33,9.67-12.03,18.93-22.07,25.31-26.3,16.68-66.29,12.34-96.93,2.78-36.93-11.52-67.88-33.93-96.19-60.33l-81.19-75.74-46.06,42.44-42.71,40.32c-39.47,38.42-107.56,70.83-162.86,59.27-17.09-3.57-34.2-13.06-40.66-28.55-10.72-25.72,3.58-53.05,27.01-68.66l46.09-30.72,12.14-8.2c55.21-40.91,108.38-83.45,161.16-127.73l45.45-38.13,53.98,44.79,85.37,69.16,52.55,40.33c20.46,15.7,41.1,29.26,62.53,43.27,19.83,12.96,37.85,27.04,41.46,51.38,1.04,6.98-.36,13.68-.92,20.21.57-1.05,1.13-1.37,1.84-1.21Z"/>
</svg>