<?xml version="1.0" encoding="UTF-8"?>
<svg id="Layer_1" data-name="Layer 1" xmlns="http://www.w3.org/2000/svg" viewBox="0 0 218.21 205.37">
  <defs>
    <style>
      .cls-1 {
        fill: #3b4043;
      }

      .cls-2 {
        fill: #020202;
      }
    </style>
  </defs>
  <polygon class="cls-2" points="97.51 90.03 97.13 118.65 37.96 118.5 37.87 32.24 123.92 32.17 123.92 89.89 97.51 90.03"/>
  <polygon class="cls-1" points="180.98 172.84 103.19 173.04 103.19 95.99 180.86 95.88 180.98 172.84"/>
  <path class="cls-1" d="M54.19,175.09c.18.95.13,1.97-.13,3.08l-22.59-.04-.06-22.63c.5-.49,1.65-.67,3.23-.4l.26,19.84,19.29.15Z"/>
  <path class="cls-1" d="M183.75,50.47l-.21-19.81h-17.27c-.95-.01-1.8-.09-2.1-.48-.37-.48-.32-1.58,0-1.97.39-.48,1.08-.55,2.1-.57l20.54-.43-.03,22.79c0,.67-3.01,1.06-3.02.46Z"/>
</svg>