<?xml version="1.0" encoding="UTF-8"?>
<svg id="Layer_1" data-name="Layer 1" xmlns="http://www.w3.org/2000/svg" viewBox="0 0 218.21 205.37">
  <defs>
    <style>
      .cls-1 {
        fill: #3b4043;
      }
    </style>
  </defs>
  <path class="cls-1" d="M97.62,163.18c-6.39,4.3-13.62,2.47-17.78-3.14l-30.56-30.31c-4.74-4.7-3.21-12.64,1.2-17.05L118.35,44.75c4.51-4.51,12.09-7.27,17.28-2.25l30.92,29.85c5.14,4.97,6.99,11.6,3.48,18.2l-72.42,72.64ZM93.61,154.8l26.15-26.22-33.8-33.49c-1.85-1.83-4.29-1.84-5.85.3l-22.48,22.51c-2.37,2.38-1.6,6.52.68,8.79l27.53,27.47c1.72,1.71,5.87,2.56,7.78.65Z"/>
</svg>