<?xml version="1.0" encoding="UTF-8"?>
<svg id="Layer_1" data-name="Layer 1" xmlns="http://www.w3.org/2000/svg" viewBox="0 0 218.21 205.37">
  <defs>
    <style>
      .cls-1 {
        fill: #3d444f;
      }

      .cls-2 {
        fill: none;
        stroke: #0068ff;
        stroke-miterlimit: 10;
        stroke-width: 8px;
      }
    </style>
  </defs>
  <path class="cls-1" d="M181.46,134.61c-.03,7.16-5.49,11.2-11.58,11.86l-82.74-.03c-7.17,0-12.94-5.78-12.94-12.97l.02-106.81c-.31-7.01,4.7-13.16,11.88-13.14l52.33.11,43.35,43.59-.32,77.39ZM172.1,131.51l-.03-62.09-36.82-.24c-3.13-.13-5.24-2.39-5.18-5.58l-.02-40.44-40.99-.26c-3.02-.02-5.24,1.57-5.12,4.81l-.12,104.72c0,2.28,2.11,4.36,4.33,4.36l78.78.05c3.27,0,5.17-2.34,5.17-5.35ZM169.42,59.05l-29.43-29.56-.32,30.19,29.75-.63Z"/>
  <path class="cls-1" d="M129.9,168.94l.15-12.29,9.28.08.11,14.61c.06,7.71-6.9,12.65-14.44,12.63l-79.54-.27c-7.88-.03-12.79-6.98-12.78-14.36l.13-110.41c0-7.38,6.3-13.06,13.33-13.04,5.6.02,11.06-.99,16.35.52,2.52.72,2.51,7.64.06,8.37-7.68,2.31-20.05-3.05-20.05,6.08l.03,108.35c0,3.48,2.41,5.13,5.62,5.12l76.7-.18c2.84,0,5.03-2.06,5.07-5.23Z"/>
  <rect class="cls-2" x="-82.15" y="-87.28" width="1296.42" height="1019.17"/>
</svg>