<?xml version="1.0" encoding="UTF-8"?>
<svg id="Layer_1" data-name="Layer 1" xmlns="http://www.w3.org/2000/svg" viewBox="0 0 218.21 205.37">
  <defs>
    <style>
      .cls-1 {
        fill: #3d444f;
      }

      .cls-2 {
        fill: none;
        stroke: #0068ff;
        stroke-miterlimit: 10;
        stroke-width: 8px;
      }
    </style>
  </defs>
  <path class="cls-1" d="M168.81,84.81c-.78,18.88-16.16,31.56-34.81,31.56h-37.87c-8.86,0-15.9,7.52-15.41,15.88,12.4,3.31,19.1,14.03,17.93,25.8s-11.35,20.55-23.11,20.51-21.4-8.42-22.98-19.78c-1.65-11.91,5.2-23.41,18.14-26.42l.11-77.48c-12.8-3.35-20.49-14.83-18.06-27.4s14.08-20.48,26.68-18.41,21.3,14.18,18.98,27.49c-1.56,8.92-8.4,15.77-17.78,18.11v56.77c5.17-2.82,9.57-5,15.07-5.02l40.28-.16c12.23-.05,22.5-9.5,22.76-21.5-12.4-3.68-18.99-14.76-17.25-26.41,1.74-11.7,11.86-20.11,23.98-19.72,11.28.36,20.72,9.31,22.11,20.6,1.47,11.94-6.08,23.07-18.77,25.58ZM71.07,19.21c-7.75,2.81-10.78,11.33-8.05,17.94s10.31,9.85,16.8,7.65c7.29-2.48,10.82-10.29,8.53-17.1s-9.67-11.24-17.28-8.48ZM159.94,49.11c-7.79,2.75-10.8,11.4-8.03,18.01s10.36,9.94,16.88,7.78c7.42-2.46,10.75-10.23,8.46-17.22s-9.61-11.28-17.31-8.57ZM72.06,142.09c-7.98,2.25-11.56,10.53-9.34,17.27s9.49,10.81,16.53,8.93c7.23-1.93,11.3-9.35,9.28-16.77-1.81-6.63-8.67-11.63-16.47-9.43Z"/>
  <rect class="cls-2" x="-697.73" y="-87.28" width="1296.42" height="1019.17"/>
</svg>