<?xml version="1.0" encoding="UTF-8"?>
<svg id="Layer_1" data-name="Layer 1" xmlns="http://www.w3.org/2000/svg" viewBox="0 0 218.21 205.37">
  <defs>
    <style>
      .cls-1 {
        fill: #3b4043;
      }
    </style>
  </defs>
  <path class="cls-1" d="M87.54,155.24c-2.9-.02-2.82-7.66-.84-8.96,4.29-2.81,12.89-.34,12.9-7.47l.16-77.02-15.56-.16c-11.33-.11-10.37,11.25-13.25,14.85-1.48,1.84-6.91,1.82-8.43-.08-1.27-8.26-1.1-17.24-.41-26.37l93.67-.18c1.21,8.71,1.07,16.97-.09,25.5-.36,2.62-4.73,2.67-6.76,2.11-4.28-1.19-4.23-15.13-11.24-15.3l-19.56-.45.05,76.67c0,8.09,10.66,5.06,13.13,7.97,1.81,2.13,1.66,6.86-.41,9.18l-43.37-.28Z"/>
</svg>