<?xml version="1.0" encoding="UTF-8"?>
<svg id="Layer_1" data-name="Layer 1" xmlns="http://www.w3.org/2000/svg" viewBox="0 0 218.21 205.37">
  <defs>
    <style>
      .cls-1 {
        fill: #3b4043;
      }
    </style>
  </defs>
  <path class="cls-1" d="M173.56,63.03c-.05,2.73-7.1,3.19-7.25.45l-.82-15.32-14.04-.24c-1.95-.03-2.23-1.98-2.53-2.96-.46-1.49-.03-4.71,1.88-4.74l19.33-.35c2.16-.04,3.79,1.58,3.75,3.72l-.32,19.44Z"/>
  <path class="cls-1" d="M52.78,47.89l-.4,14.58c-.05,1.76-2.64,2.97-4.01,3.48-1.25.46-3.75-1.52-3.76-3.49l-.09-18.76c-.01-2.26,1.65-3.82,3.91-3.8l18.49.14c1.82.01,2.26,2.15,2.43,3.15.27,1.53-.06,4.44-2.12,4.47l-14.46.24Z"/>
  <path class="cls-1" d="M66.73,157.25c2.42.04,2.82,2.51,2.96,3.71.18,1.47-.3,4.31-2.52,4.33l-18.85.17c-2.81.03-4.07-2.37-3.98-4.96l.66-18.54c.09-2.44,6.13-2.51,6.83-.15,1.5,5.08.62,10.19.78,15.22l14.13.23Z"/>
  <path class="cls-1" d="M151.73,165.37c-2.42-.02-2.9-2.27-3.02-3.43-.16-1.65.41-4.53,2.58-4.55l14.32-.14.54-14.78c.1-2.84,7.12-3.08,7.18-.31l.49,20.13c.05,1.91-1.85,3.22-3.62,3.21l-18.48-.13Z"/>
  <path class="cls-1" d="M123.5,165.24l-28.15.08c-2.24,0-2.61-2.96-2.47-4.35.17-1.6.77-3.74,3.31-3.73l26.93.07c1.97,0,2.44,2.57,2.56,3.66s-.09,4.27-2.19,4.28Z"/>
  <path class="cls-1" d="M123.62,47.49l-28.3.3c-1.88.02-2.38-2.68-2.39-3.71-.02-1.24.48-4.06,2.67-4.04l28.04.18c2.67.02,3.03,7.25-.01,7.29Z"/>
  <path class="cls-1" d="M52.44,114.99c0,2.26-2.64,2.45-3.65,2.47-1.18.03-4.07-.31-4.09-2.3l-.27-23.72c-.03-2.76,2.57-3.57,4.31-3.53,2.49.06,3.8,1.84,3.79,4.56l-.08,22.51Z"/>
  <path class="cls-1" d="M173.43,115.61c-.04,2.81-7.19,2.61-7.24,0l-.42-23.13c-.04-2.43,1.42-3.96,3.26-4.45,1.48-.39,4.74.24,4.71,2.78l-.31,24.81Z"/>
</svg>