<?xml version="1.0" encoding="UTF-8"?>
<svg id="Layer_1" data-name="Layer 1" xmlns="http://www.w3.org/2000/svg" viewBox="0 0 218.21 205.37">
  <defs>
    <style>
      .cls-1 {
        fill: #3b4043;
      }
    </style>
  </defs>
  <path class="cls-1" d="M167.36,76.05l-33.78-33.09c-1.39-1.37-3.98-1.71-5.41-.26l-24.8,25.19c-1.86,1.89,2.71,6.47,4.44,7.2-3.39,4.36-7.55,6.18-11.78,8.43l-23.37,12.39-11.1,30.03-9.17,24.53-1.84,6.51c-.68,2.44-.53,4.39.9,5.57,1.54,1.27,3.17,1.42,5.72.36l60.81-25.22,13.54-31.72c.8-1.89,1.99-3.85,4.29-4.52.54,1.51,4.55,5.56,6.06,4.09l24.9-24.25c1.11-1.08,1.93-3.93.59-5.24ZM122.77,108.21l-10.49,24.48-45.71,18.54,28.79-29.31c2.53-2.58,8.51-.85,7.74-7.1-.36-2.92-2.8-5.99-7.08-6.01-4.69-.02-5.06,4.93-5.57,8.31-8.45,8.55-16.34,18.47-26.77,26.26l14.69-43.15,16.98-8.44c6.41-3.19,12.25-6.56,17.6-11.79l17.69,16.8c-3.25,3.55-5.96,6.97-7.87,11.41Z"/>
</svg>