<?xml version="1.0" encoding="UTF-8"?>
<svg id="Layer_1" data-name="Layer 1" xmlns="http://www.w3.org/2000/svg" viewBox="0 0 218.21 205.37">
  <defs>
    <style>
      .cls-1 {
        fill: #3b4043;
      }
    </style>
  </defs>
  <path class="cls-1" d="M143.48,132.82c-20.74,15.55-46.3,15.73-67.26,1.09-11.15-7.79-19.41-18.26-27.24-30.48,8-13.58,17.88-25.78,31.07-34.11,18.78-11.86,41.01-11.45,59.41.84,12.37,8.27,21.85,19.57,29.74,32.79-6.76,11.61-14.8,21.66-25.74,29.87ZM157.13,102.94c-6.46-10.18-13.9-18.52-23.62-24.91-27.54-18.1-55.54-1.88-72.36,25.06,6.77,11.22,15.82,20.57,27.51,26.7,27.06,14.2,53.16-2.17,68.47-26.85Z"/>
  <path class="cls-1" d="M106.77,86.3c9.68-1.56,17.58,5.88,18.77,14.15,1.34,9.32-5.14,17.21-13.91,18.69-8.92,1.5-17.37-4.85-18.83-13.13-1.65-9.34,3.96-18.09,13.97-19.7Z"/>
</svg>