<?xml version="1.0" encoding="UTF-8"?>
<svg id="Layer_1" data-name="Layer 1" xmlns="http://www.w3.org/2000/svg" viewBox="0 0 218.21 205.37">
  <defs>
    <style>
      .cls-1 {
        fill: #45505f;
      }
    </style>
  </defs>
  <path class="cls-1" d="M124.68,132.83c-.13-7.93-8.25-12.1-15.03-12.35-7.34-.27-14.56,4.47-15.74,12.33l-.45,19.52c-.15,6.64-5.58,11.25-12.21,11.23l-10.05-.04c-6.77-.03-11.71-4.97-11.71-11.7v-31.02c0-14.51-10.28-15.62-10.34-19.46-.02-1.54.81-2.37,2.1-3.64l55.22-54.43c1.92-1.89,3.62-2,5.54-.1l55.17,54.5c7.22,7.13-8.4,6.9-8.41,21.13l-.02,32.99c0,6.57-4.74,12.03-11.57,11.8l-12.75-.44c-6.05-.21-9.34-6.5-9.44-12.29l-.31-18.02Z"/>
</svg>