<?xml version="1.0" encoding="UTF-8"?>
<svg id="Layer_1" data-name="Layer 1" xmlns="http://www.w3.org/2000/svg" viewBox="0 0 218.21 205.37">
  <defs>
    <style>
      .cls-1 {
        fill: #6a6d75;
      }
    </style>
  </defs>
  <path class="cls-1" d="M125.52,105.74l-51.11,32.2c-.75.47-1.61,1.07-2.1,1-.74-.11-1.47-1.44-1.46-2.67l.48-70.64,54.72,34.42c1.19.75,1.76,1.85,1.69,2.81-.07,1.04-.67,1.9-2.23,2.88Z"/>
  <path class="cls-1" d="M147.29,138.82c0,4.13-2.96,6.14-5.91,6-2.46-.12-5.39-2.1-5.4-5.54l-.07-72.77c0-3.68,2.67-5.92,5.43-5.97,3.25-.06,6.02,2.19,6.01,5.87l-.06,72.4Z"/>
</svg>