<?xml version="1.0" encoding="UTF-8"?>
<svg id="Layer_1" data-name="Layer 1" xmlns="http://www.w3.org/2000/svg" viewBox="0 0 218.21 205.37">
  <defs>
    <style>
      .cls-1 {
        fill: #db7a17;
      }
    </style>
  </defs>
  <path class="cls-1" d="M42.64,108.79c-13.54-9.16-16.95-26.24-9.87-39.07,7.85-14.22,23.82-18.76,39.05-12.67,3.33,1.33,11.14.33,13.81-1.95,5.18-5.78,8.92-12.2,15.57-16.34,16.16-10.07,35.96-8.03,49.52,4.73s16.68,32.94,7.27,49.24-27.92,23.86-46.51,18.49l-42.56.05c-8.58,2.26-18.6,2.7-26.27-2.48ZM132.75,88.59c6.2-3.48,9.28-9.74,9.38-16.01s-3.32-12.26-9.11-15.91c-8.09-5.1-18.44-3.01-24.27,4s-5.88,17.01-.03,23.8,15.43,8.96,24.02,4.13ZM55.78,73.78c-6.37,1.48-8.94,7.9-7.28,13.09s6.98,8.18,12.41,6.83,8.96-6.79,7.35-12.63c-1.33-4.82-6.37-8.7-12.49-7.29Z"/>
  <path class="cls-1" d="M143.94,164.67c.03,3.53-2.71,8.24-6.33,8.24H58.75c-2.68,0-6.66-3.39-6.67-5.7l-.15-38.25c-.02-4.37,3.33-8.67,8.03-8.67h76.52s4.7,1.31,4.7,1.31c.7,1.46,2.45,3.77,2.46,5.55l.29,37.51Z"/>
  <path class="cls-1" d="M161.7,160.35c-3.49-1.97-9.27-3.46-9.34-7.7l-.32-18.5c-.06-3.26,1.83-5.01,4.3-6.39l26.95-15.09c1.2-.67,2.51-.59,3.4-.18,1.02.48,2.31,1.85,2.32,3.58l.05,52.89c0,1.41-1.01,2.74-1.64,3.28-.99.83-2.71,1.06-4.15.25l-21.55-12.14Z"/>
  <path class="cls-1" d="M120.74,68.59c2.42-1.57,5.15-.63,6.32,1.5.93,1.7.71,4.58-1.67,6.06-1.46.91-3.95.72-5.41-.86s-1.88-4.98.76-6.7Z"/>
</svg>