<?xml version="1.0" encoding="UTF-8"?>
<svg id="Layer_1" data-name="Layer 1" xmlns="http://www.w3.org/2000/svg" viewBox="0 0 218.21 205.37">
  <defs>
    <style>
      .cls-1 {
        fill: #6a6d75;
      }
    </style>
  </defs>
  <path class="cls-1" d="M164.78,152.31l.53-69.71c.13-1.71,5.56-1.77,7.24-.49l.12,77.68c0,3.48-2.21,7.93-6.31,7.93l-113.66.05c-5.08,0-7.16-4.61-7.16-9l.08-76.73c2.42-1.06,4.56-1.14,7.4-.11l.16,70.56,36.47-45.57,26.97,33,21.97-16.38,26.2,28.77Z"/>
  <path class="cls-1" d="M168.69,74.08H49.7c-2.56-.35-4.03-1.84-4.03-4.22v-24.86c.01-4,2.91-6.86,7.04-7.39l112.68.04c4.21,0,7.21,3.26,7.2,7.18l-.04,25.01c0,1.88-1.3,3.53-3.86,4.25ZM164.84,66.35l-.15-21.02H53.44s-.27,19.16-.27,19.16c-.03,1.99,2.72,2.12,4.47,2.11l107.21-.25Z"/>
  <path class="cls-1" d="M128.45,89.36c6.76-1.47,12.18,2.86,13.49,8.46,1.45,6.19-2.45,12.13-8.58,13.39-5.79,1.19-11.53-1.93-13.26-7.62s1.53-12.75,8.35-14.23Z"/>
</svg>