<?xml version="1.0" encoding="UTF-8"?>
<svg id="Layer_1" data-name="Layer 1" xmlns="http://www.w3.org/2000/svg" viewBox="0 0 218.21 205.37">
  <defs>
    <style>
      .cls-1 {
        fill: #3d444f;
      }

      .cls-2 {
        fill: none;
        stroke: #0068ff;
        stroke-miterlimit: 10;
        stroke-width: 8px;
      }
    </style>
  </defs>
  <path class="cls-1" d="M116.49,182.97l-19.27.1c-4.94.02-8.35-4.73-9.19-9.24l-2.27-12.17c-.4-2.14-6.34-4.48-8.26-3.32l-11.44,6.88c-4.05,2.44-9.23,2.43-12.72-.94l-10.14-9.83c-3.57-3.45-4.36-9.35-1.51-13.47l7.46-10.81c-.55-2.67-1.68-5.15-3.04-7.74l-13.65-2.57c-4.23-.79-7.72-4.98-7.7-9.4l.06-16.85c.01-4.29,3.6-7.48,7.6-8.68,8.56-2.57,15.45.45,16.08-10.25-1.21-3.74-4.37-6.79-6.42-9.98-2.88-4.47-3.68-10.21.19-14.12l11.42-11.53c2.72-2.75,7.73-2.86,11.05-1.03l12.7,6.98c1.85,1.02,6.92-1.18,7.89-3.22,2.81-5.88-.04-22.33,13.29-22.39l15.24-.07c6.27-.03,10.73,4.5,11.72,10.53l1.9,11.53c.34,2.05,5.41,4.5,7.5,3.94,6.65-1.8,17.24-13.62,25.14-5.75l9.98,9.94c9.66,9.63-3.06,18.7-5.18,25.16-.67,2.05,1.56,6.7,3.36,7.59l11.85,2.39c4.75.96,8.51,4.84,8.52,9.96l.02,14.83c.02,12.8-14.23,10.3-20.64,13-1.91.8-3.75,5.84-3.08,7.82,1.81,5.35,14.09,15.03,6,23.17l-10.39,10.45c-3.2,3.22-8.12,4.19-11.93,1.97l-12.88-7.48c-1.97-1.14-7.8,1.17-8.18,3.32l-2.03,11.53c-.79,4.47-3.64,9.7-9.06,9.72ZM127.06,151.33c3.87-1.46,7.67-3.89,11.67-1.38l10.31,6.48c3.29,2.07,6.17,1.29,8.32-1.87,1.77-2.61,6.21-4.53,6.56-8.29.25-2.71-3.21-6.61-4.84-8.4-4.7-5.15-4.06-9.46-1.87-15.16,4.81-12.5,11.14-7.86,22.15-12.13.6-5.72.71-11.26-.3-16.97l-14.15-2.9c-4.79-.98-6.02-5.46-7.75-9.2-5.38-11.63,3.72-13.47,7.22-23.97-3.09-4.46-6.84-8.39-11.26-11.92l-15.15,8.54c-3.53,1.99-7.41-.65-10.59-1.72-12.15-4.09-7.79-12.25-11.72-23.46-6.07-.79-11.92-.8-18.03.03-4.48,11.58.85,17.28-11.07,23.08-13.26,6.45-15.33-2.62-27.35-6.25-3.57,3.72-7.62,6.59-10.1,11.07,1.43,10.13,12.5,11.17,7.15,24.6-4.9,12.3-9.2,8.34-21.91,12.25-.93,5.79-1.07,11.68.13,17.29l14.98,3.21c4.34.93,5.19,5.64,6.83,9.02,5.19,10.68-2.67,13.23-7.32,23.34,3.01,4.64,6.98,9.01,12.04,11.39l14.14-8.46c3.9-2.33,8.08.74,11.66,2.04,12.78,4.66,5.77,14.58,11.83,22.05,5.47,1.7,11.42.69,16.94.39,4.39-11.04-.64-18.13,11.46-22.71Z"/>
  <path class="cls-1" d="M112.36,131.91c-17.31,3.13-32.58-7.73-35.97-23.9-3.35-15.95,6.48-32.28,23.11-35.97,17.23-3.83,33.31,6.66,37.15,23.36s-6.71,33.33-24.29,36.5ZM102.11,81.03c-12.54,2.62-19.28,14.75-16.33,26.27,2.78,10.85,14.18,17.78,25.17,15.51,11.69-2.41,18.98-13.66,16.59-25.1s-13.18-19.24-25.43-16.68Z"/>
  <rect class="cls-2" x="-376.84" y="-385.08" width="1296.42" height="1019.17"/>
</svg>