<?xml version="1.0" encoding="UTF-8"?>
<svg id="Layer_1" data-name="Layer 1" xmlns="http://www.w3.org/2000/svg" viewBox="0 0 218.21 205.37">
  <defs>
    <style>
      .cls-1 {
        fill: #3d444f;
      }

      .cls-2 {
        fill: none;
        stroke: #0068ff;
        stroke-miterlimit: 10;
        stroke-width: 8px;
      }
    </style>
  </defs>
  <path class="cls-1" d="M96.53,124.84l-49.5,49.42c-2.29,2.29-3.96,3.26-6.66,2.22-2.22-.86-4.78-5.12-2.41-7.51l51.07-51.47c-18.24-20.23-20.55-49.09-7.02-72.23s38.71-33.95,65-29.22c23.44,4.22,41.74,22.45,47.58,43.99,6.73,24.82-1.53,50.11-21.42,65.44-22.49,17.33-53.53,17.03-76.65-.63ZM186.25,69.09c-3.97-26.4-26.22-44.44-51.53-44.11-25.43.33-46.84,18.82-50.64,44.11s10.73,48.7,35.25,56.51c17.43,5.55,35.87,2.05,49.9-9.95,12.65-10.82,19.78-28.21,17.02-46.55Z"/>
  <rect class="cls-2" x="-376.84" y="-87.28" width="1296.42" height="1019.17"/>
</svg>