<?xml version="1.0" encoding="UTF-8"?>
<svg id="Layer_1" data-name="Layer 1" xmlns="http://www.w3.org/2000/svg" viewBox="0 0 218.21 205.37">
  <defs>
    <style>
      .cls-1 {
        fill: #3d444f;
      }

      .cls-2 {
        fill: none;
        stroke: #0068ff;
        stroke-miterlimit: 10;
        stroke-width: 8px;
      }
    </style>
  </defs>
  <path class="cls-1" d="M111.06,131.65l66.83-41.95L86.11,30.29l-.17,72.57c-4.24-.09-6.41-1.46-9.42-2.87l.06-80.1c0-1.83,1.7-2.97,2.85-3.41,1.38-.53,2.66-.48,4.4.64l106.61,68.9c1.66,1.07,2.6,1.69,2.8,3.12.21,1.52-.28,2.85-1.86,3.83l-75.62,47.2c-3.99-.54-6.27-4.21-4.69-8.53Z"/>
  <path class="cls-1" d="M90.42,169.15c-5.49,7.45-12.73,11.01-20.79,11.1-8.57.1-16.44-3.15-21.83-11.14l-10.6,10.35c-1.52,1.49-4.2.02-5.23-1.19-1.24-1.44-1.94-3.54-.32-5.3l11.63-12.58c1.41-2.64.19-6.98.1-9.93l-10.01-.42c-1.97-.08-2.65-2.48-2.65-4.03,0-1.46.7-3.9,2.71-4l9.96-.48c.2-2.82,1.58-7.52-.4-9.65l-11.63-12.5c-1.62-1.74-.32-4.23.85-5.37,1.82-1.76,4.47-1.64,6.32.15l6.82,6.64c2.07-1.33,5.77-2.83,6.65-5.4,3.1-9.15,11.21-14.35,21.09-12.35,9.94,2.01,9.81,14.54,19.99,18.06l6.23-6.44c1.95-2.02,4.75-2.66,6.73-.71,2.14,2.11,1.88,4.62-.45,7.06l-10.32,10.82c-2.01,2.11-.64,6.84-.43,9.61l10.11.5c1.89.09,2.49,2.69,2.57,4.19.08,1.36-.63,3.91-2.66,3.96l-10.02.29c-.15,3.12-1.19,7.18.06,9.96,4.96,7.92,15.17,11.84,11.52,17.75-.79,1.28-3.77,2.97-5.39,1.39l-10.61-10.37ZM85.51,155.59l-.46-28.64c-9.24-6.34-8.94-15.81-16.39-15.54-7.46.28-6.97,8.9-15.74,15.93l-.37,28.12c-.12,9.2,7.87,16.1,16.19,16.23,8.68.14,16.91-6.87,16.77-16.11Z"/>
  <rect class="cls-2" x="-990.39" y="-87.28" width="1296.42" height="1019.17"/>
</svg>