<?xml version="1.0" encoding="UTF-8"?>
<svg id="Layer_1" data-name="Layer 1" xmlns="http://www.w3.org/2000/svg" viewBox="0 0 218.21 205.37">
  <defs>
    <style>
      .cls-1 {
        fill: #db7a17;
      }
    </style>
  </defs>
  <path class="cls-1" d="M129.77,133.8l-41.11.22c-1.13-18.93-14.6-28.6-19.97-41.18-7.32-17.14-3-37.3,10.8-50.02,10.4-9.58,23.86-13.57,38.02-10.84,11.98,2.31,23.58,10.11,30.1,22.02,9.35,17.07,6.2,36.87-6.04,51.73-6.55,7.95-10.59,16.74-11.8,28.07Z"/>
  <path class="cls-1" d="M126.42,164.18c-3.37,6.71-10.55,10.08-17.22,10.06-9.62-.03-18.64-8.19-17.32-13.74.18-.75,1.78-1.17,3.03-1.18l28.6-.06c1.93,0,4.18,2.4,2.91,4.93Z"/>
  <path class="cls-1" d="M128.72,151.08l-38.29-.27c-2.44-.02-2.23-7.89.17-7.89l37.22-.04c2.38,0,2.99,5.53.9,8.2Z"/>
</svg>