<?xml version="1.0" encoding="UTF-8"?>
<svg id="Layer_1" data-name="Layer 1" xmlns="http://www.w3.org/2000/svg" viewBox="0 0 218.21 205.37">
  <defs>
    <style>
      .cls-1 {
        fill: #6a6d75;
      }
    </style>
  </defs>
  <path class="cls-1" d="M130.26,156.68l-16.88,20.46c-1.08,1.31-1.93,2.42-3.21,2.65-1.94.35-3.34-.49-4.63-2.06l-18.87-22.89c7.23-4.18,16.6,1.83,16.47-6.24l-.42-25.71c-7.13-2.25-11.75-7.18-14.28-14.01l-25.66-.31c-7.67-.09-2.21,9.47-6.09,16.13l-23.09-18.02c-1.45-1.13-2.27-2.19-2.32-3.62-.06-1.64.72-2.66,2.15-3.85l22.34-18.53c6.06,4.69-1.74,16.19,6.96,16.11l25.55-.24c2.29-7.16,7.9-11.28,14.49-14.16l.39-25.81c.04-2.39-1.16-4.21-3.49-4.33l-11.11-.59c-3-1.39.12-4.53,1.26-5.85l15.81-18.3c1.13-1.31,2.02-2.08,3.63-2.03,1.45.04,2.49.71,3.61,2.09l18.66,23.02c-6.46,3.98-16.59-1.87-16.46,6.08l.42,25.85c7.08,2.42,11.82,7.17,14.29,14h28.82c3.17-4.8.32-12.53,2.07-14.44.59-.64,2.79-.88,3.7-.11l21.58,18.36c1.91,1.63.73,4.37-.85,5.67l-21.49,17.75c-.88.73-2.49.17-2.97-.57-2.02-3.1,1.42-10.53-2.4-14.02l-28.13-.42c-2.98,7.13-7.76,11.86-14.8,14.49l-.21,26.16c-.02,2.19,1.63,3.83,3.78,3.83h8.93c.82-.01,1.67.38,2.05.59.52.3,1.32,1.77.42,2.86ZM107.67,91.1c-7.07.91-11.13,7.44-10.13,13.9.91,5.86,6.9,10.09,13.37,9.25,6.02-.78,10.85-6.26,10-13.03-.7-5.59-6.12-11.03-13.23-10.12Z"/>
</svg>