<?xml version="1.0" encoding="UTF-8"?>
<svg id="Layer_1" data-name="Layer 1" xmlns="http://www.w3.org/2000/svg" viewBox="0 0 218.21 205.37">
  <defs>
    <style>
      .cls-1 {
        fill: #6a6d75;
      }
    </style>
  </defs>
  <path class="cls-1" d="M138.03,63.64l7.26-7.61c-24.93-18.24-58.98-15.36-80,6.75-13.41,14.11-17.21,33.01-14.88,52.06-.85,2.98-8.28,4.19-10.49,1.77-5.07-25.35,4.16-52.25,24.6-68.36,25.91-20.42,61.74-20.28,88.27-.79,3.24-3.11,4.34-7.76,8.98-10.07l10.27,35.16-32.68-5.26c-.65-.1-1.95-.68-2.17-1.1-.29-.57.18-1.86.84-2.55Z"/>
  <path class="cls-1" d="M47.59,133.29l35.08,7.28-8.68,9.72c23.98,16.61,56.4,14.51,77.2-5.59,14.69-14.2,19.5-34.31,16.4-54.25,2.42-2.69,8.19-3.16,10.73-.74,4.41,22.34-1.99,45.57-18.2,62.02-24.73,25.11-64.65,27.4-93.61,7.02l-10.18,10.4-8.72-35.86Z"/>
</svg>