<?xml version="1.0" encoding="UTF-8"?>
<svg id="Layer_1" data-name="Layer 1" xmlns="http://www.w3.org/2000/svg" viewBox="0 0 218.21 205.37">
  <defs>
    <style>
      .cls-1 {
        fill: #6a6d75;
      }
    </style>
  </defs>
  <path class="cls-1" d="M135.2,146.49c-33.93,10.66-67.52-4.18-87.05-32.54-2.46-3.57-3.37-7.03-.85-10.53l8.19-11.38c1.93-2.68,2.9-3.15,5.18-5.04,14.97-12.45,32.45-21.52,52.67-21.13,26.96.51,51.4,15.56,65.38,38.09,1.83,2.95,1.4,6.11-.35,8.85-10.19,15.88-25.24,27.52-43.16,33.68ZM144.43,108.11c.1-17.67-14.32-30.92-30.58-31.32-16.07-.4-30.63,11.27-32.32,27.92-1.84,18.07,11.97,33.37,29.25,34.39s33.54-11.91,33.65-30.98Z"/>
  <path class="cls-1" d="M107.26,91.17c9.8-3.28,19.59,2.22,22.48,11.31,2.95,9.26-1.82,19.46-11.6,22.4-8.53,2.56-18.7-1.72-21.94-10.62s.79-19.65,11.05-23.09Z"/>
</svg>