<?xml version="1.0" encoding="UTF-8"?>
<svg id="Layer_1" data-name="Layer 1" xmlns="http://www.w3.org/2000/svg" viewBox="0 0 218.21 205.37">
  <defs>
    <style>
      .cls-1 {
        fill: #88878b;
      }

      .cls-2 {
        fill: #45505f;
      }
    </style>
  </defs>
  <path class="cls-1" d="M102.39,101.18c-17.72-4.04-26.28-23.25-19.1-38.99s26.98-22.09,41.86-11.76c11.49,7.97,15.64,22.27,10.1,34.7s-18.46,19.34-32.86,16.05Z"/>
  <path class="cls-2" d="M80.89,159.35c-17.51,3.69-33.22-8.53-34.41-25.26-1.22-17.07,12.45-31.52,30.29-30.27,14.29,1,25,12.14,26.24,25.97,1.21,13.49-7.71,26.53-22.12,29.56Z"/>
  <path class="cls-1" d="M169.02,119.65c6.8,14.68.64,30.52-12.65,37.28-13.02,6.63-29.47,2.43-37.28-10.73-7.3-12.29-4.07-29.61,8.89-37.97,14.01-9.03,33.78-4.24,41.04,11.42Z"/>
</svg>