<?xml version="1.0" encoding="UTF-8"?>
<svg id="Layer_1" data-name="Layer 1" xmlns="http://www.w3.org/2000/svg" viewBox="0 0 218.21 205.37">
  <defs>
    <style>
      .cls-1 {
        fill: #45505f;
      }
    </style>
  </defs>
  <path class="cls-1" d="M129.46,157.62l-40.23.13c-2.51,0-4.21-1.69-4.5-3.67-.98-6.6,12.56-4.74,14.21-20.74,2.08-20.17,1.55-40.71.09-60.94-.58-7.98-6.6-11.57-13.86-11-18.69,1.45-16.66,15.86-21.52,16.01-1.64.05-3.49-.89-3.89-2.96-1.43-7.46-1.75-14.79-1.36-22.49.11-2.2,1.86-4.33,4.29-4.33h92.91c2.95.01,4.52,2.73,4.38,5.25l-1.22,20.8c-.12,2.07-1.6,3.49-3.31,3.72-6.06.83-3.73-15.35-22.39-15.91-3.5-.11-7.34.13-10.09,2.66-1.97,1.81-3.5,5.5-3.77,9.16-1.48,20.02-1.69,40,.19,59.91,1.5,15.89,14.23,14.4,14.39,20.15.05,1.74-1.38,4.25-4.31,4.26Z"/>
</svg>