<?xml version="1.0" encoding="UTF-8"?>
<svg id="Layer_1" data-name="Layer 1" xmlns="http://www.w3.org/2000/svg" viewBox="0 0 218.21 205.37">
  <defs>
    <style>
      .cls-1 {
        fill: #45505f;
      }
    </style>
  </defs>
  <path class="cls-1" d="M140.66,160.81h-62.29c-1.42.01-2.71-.44-3.24-1.16-.65-.89-.95-2.89,0-4.03l8.62-10.38c1.18-1.42,1.87-3.37,1.9-6.03l-41.21-.46c-3.57-.04-5.51-3.68-5.51-6.93l.02-80.7c0-3.18,2.26-6.51,5.75-6.51l128.26-.05c3.72,0,6.32,2.79,6.32,6.47l-.04,81.83c0,3.53-2.58,6.03-5.95,6.04l-40.13.07c-.17,3.65,1.51,6.61,3.86,9.21l6.63,7.32c.82.91.74,2.67.38,3.55-.3.72-1.3,1.76-3.37,1.76ZM169.46,129.05l-.16-74.77-120.28.12.03,74.76,120.41-.11Z"/>
  <polygon class="cls-1" points="129.07 110.97 89.51 111.2 89.56 72.24 128.7 72.11 129.07 110.97"/>
</svg>