<?xml version="1.0" encoding="UTF-8"?>
<svg id="Layer_1" data-name="Layer 1" xmlns="http://www.w3.org/2000/svg" viewBox="0 0 218.21 205.37">
  <defs>
    <style>
      .cls-1 {
        fill: #45505f;
      }
    </style>
  </defs>
  <path class="cls-1" d="M114.38,141.41c-2.19-1.08-4.62-2.34-6.72-1.27l-29.02,14.9c-1.11.57-2.19.5-2.84-.02-1.11-.88-.78-1.94-.57-3.42l4.15-29.82c.38-2.74-.28-4.77-2.14-6.69l-23.92-24.58,33.28-6.22c2.01-.38,5.08-1.09,6.07-3.09l14.89-30.05c.43-.88,1.03-1.39,1.54-1.6.62-.25,1.63-.3,2.09.63l14.53,29.3c1.39,2.81,3.47,4.23,6.64,4.75l30.7,5.04c.66.11,1.42.54,1.61.82.28.4.45,1.52-.16,2.15l-23.56,24.34c-1.23,1.27-1.09,3.7-.9,5.37l3.85,34.03-29.5-14.57Z"/>
</svg>