<?xml version="1.0" encoding="UTF-8"?>
<svg id="Layer_1" data-name="Layer 1" xmlns="http://www.w3.org/2000/svg" viewBox="0 0 218.21 205.37">
  <defs>
    <style>
      .cls-1 {
        fill: #45505f;
      }
    </style>
  </defs>
  <path class="cls-1" d="M175.46,116.51c-33.38,41.88-96.76,42.55-131.28,1.92-3.41-4.02-8.08-10.38-7.81-15.73.32-6.43,5.33-12.63,9.62-17.43,35.13-39.31,97-37.58,129.77,4.54,2.93,3.77,6.02,8.14,6.07,12.87.06,5-2.98,9.58-6.38,13.83ZM113.57,133.39c16.44-2.35,27.7-16.61,27.05-31.97s-13.18-28.79-29.31-29.82c-19.27-1.23-34.44,13.85-33.66,32.37.75,18.06,16.77,32.15,35.93,29.42Z"/>
  <path class="cls-1" d="M122.52,114.35c-7.23,7.65-18.19,7.78-25.3,1.63-7.37-6.38-8.15-17.62-2.03-24.82,6.34-7.46,17.09-8.9,25.06-2.6,8.02,6.33,9.6,18.04,2.27,25.8Z"/>
</svg>