<?xml version="1.0" encoding="UTF-8"?>
<svg id="Layer_1" data-name="Layer 1" xmlns="http://www.w3.org/2000/svg" viewBox="0 0 218.21 205.37">
  <defs>
    <style>
      .cls-1 {
        fill: #45505f;
      }
    </style>
  </defs>
  <path class="cls-1" d="M147.38,158.6h-75.64c-2.21-.02-3.77-1.51-3.92-3.69-1.08-15.8-1.58-31.22-.3-47.02,1.6-19.73,8.65-42.71,24.05-54.72,11.71-9.13,27.43-8.43,38.15,1.79,14.96,14.27,20.45,37.18,21.73,57.94l-.48,41.98c-.02,1.99-1.26,3.71-3.59,3.71ZM125.85,77.03c2.16-10.86-7.07-19.94-16.74-19.67-10.39.29-18.43,9.74-15.82,20.27,1.9,7.67,9.36,12.14,16.65,11.94,6.91-.19,14.32-4.58,15.91-12.54Z"/>
</svg>