<?xml version="1.0" encoding="UTF-8"?>
<svg id="Layer_1" data-name="Layer 1" xmlns="http://www.w3.org/2000/svg" viewBox="0 0 417.19 123.8">
  <defs>
    <style>
      .cls-1 {
        fill: #fff;
      }
    </style>
  </defs>
  <path class="cls-1" d="M35.8,118.38c-6.38,0-12-1.53-16.6-4.09-9.96-5.62-15.2-17.24-15.2-33.46v-37.54c0-18.26,6.51-30.39,18.9-35.24,2.68-1.02,5.62-1.79,8.81-2.04h1.28c0-.13,1.02-.13,1.02-.13h2.43c4.98,0,9.58.77,13.54,2.3,4.09,1.53,7.53,3.96,10.34,7.02,5.75,6.38,8.68,15.83,8.68,28.09,0,.51.26.77.38.89.26.26.51.38.89.38.51,0,.89-.26,1.15-.64l19.92-33.2c.38-.64,1.02-.89,1.66-.89h15.45c.89,0,1.66.64,1.92,1.53v.77c0,.26-.13.51-.26.64l-29.24,46.74c-.13.38-.13.89,0,1.15l30.77,50.7c.38.64.38,1.28,0,1.92s-1.02,1.02-1.66,1.02h-16.73c-.64,0-1.28-.38-1.66-.89l-20.18-33.71c-.26-.38-.64-.64-1.15-.64s-1.28.51-1.28,1.28v.51c0,16.47-5.11,27.71-15.07,33.46-4.6,2.55-10.09,3.96-16.6,4.09,0,0-1.53,0-1.53,0ZM20.6,58.88c-.64,0-1.28.51-1.28,1.28v20.69c0,15.71,5.24,23.24,16.47,23.5h1.53c8.43-.38,13.54-5.36,13.54-13.66s-6.51-15.32-12.77-19.67l-11.49-8.04c-1.79-1.28-3.58-2.55-5.24-3.96-.26-.26-.51-.26-.77-.26,0,0,0,.13,0,.13ZM35.54,19.8c-7.53.38-11.75,5.11-11.75,13.02s5.11,13.15,12.64,18.26l11.75,8.43c1.15.77,2.3,1.66,3.45,2.55.26.13.51.26.77.26.64,0,1.28-.38,1.28-1.15h0v-17.88c0-15.83-5.36-23.37-16.73-23.5h-1.4v-.26.26h0Z"/>
</svg>