<?xml version="1.0" encoding="UTF-8"?>
<svg id="Layer_1" xmlns="http://www.w3.org/2000/svg" version="1.1" viewBox="0 0 128.8 124.8">
  <!-- Generator: Adobe Illustrator 30.3.0, SVG Export Plug-In . SVG Version: 2.1.3 Build 182)  -->
  <defs>
    <style>
      .st0 {
        fill: none;
      }

      .st1 {
        fill: #6913bc;
      }

      .st2 {
        fill: #444;
      }

      .st3 {
        fill: #535056;
      }

      .st4 {
        fill: #58348c;
      }

      .st5 {
        fill: #4c120a;
      }

      .st6 {
        fill: #141414;
      }

      .st7 {
        fill: #c15a49;
      }

      .st8 {
        fill: #823cd3;
      }

      .st9 {
        fill: #7f7f7f;
      }

      .st10 {
        fill: #250747;
      }

      .st11 {
        display: none;
      }

      .st12 {
        fill: #93443a;
      }
    </style>
  </defs>
  <path class="st9" d="M-19.3,33.6c-.8,4.9-5.2,8.3-9.9,9,0,0-19.4,3-19.4,3-4,.4-13.6,2.8-17.5,2-3.9-.7-7.1-3.7-7.1-7.9.2-1.8-.6-25.8.6-26.6,1.9-5.9,8.4-8.7,14.2-9,2.5-.4,7.9-1.2,10.4-1.5,2.9-.4,9.1-1.4,11.9-1.9,6.3-1.4,14.8-1.9,16.7,6,0,0,0,26.8,0,26.8Z"/>
  <g>
    <path class="st6" d="M-33.3-256.3c-5,0-9.4-1.2-13-3.2-7.8-4.4-11.9-13.5-11.9-26.2v-29.4c0-14.3,5.1-23.8,14.8-27.6,2.1-.8,4.4-1.4,6.9-1.6h1c0-.1.8-.1.8-.1.2,0,.3,0,.5,0,.1,0,.3,0,.5,0h.2c.2,0,.4,0,.6,0h.1c3.9,0,7.5.6,10.6,1.8,3.2,1.2,5.9,3.1,8.1,5.5,4.5,5,6.8,12.4,6.8,22,0,.4.2.6.3.7.2.2.4.3.7.3.4,0,.7-.2.9-.5l15.6-26c.3-.5.8-.7,1.3-.7h12.1c.7,0,1.3.5,1.5,1.2,0,.2,0,.4,0,.6,0,.2-.1.4-.2.5L2-302.4c-.1.3-.1.7,0,.9l24.1,39.7c.3.5.3,1,0,1.5-.3.5-.8.8-1.3.8h-13.1c-.5,0-1-.3-1.3-.7l-15.8-26.4c-.2-.3-.5-.5-.9-.5s-1,.4-1,1v.4c0,12.9-4,21.7-11.8,26.2-3.6,2-7.9,3.1-13,3.2-.2,0-.4,0-.6,0h-.6ZM-45.2-302.9c-.5,0-1,.4-1,1v16.2c0,12.3,4.1,18.2,12.9,18.4.2,0,.4,0,.6,0s.2,0,.3,0h.3c6.6-.3,10.6-4.2,10.6-10.7s-5.1-12-10-15.4l-9-6.3c-1.4-1-2.8-2-4.1-3.1-.2-.2-.4-.2-.6-.2ZM-33.5-333.5c-5.9.3-9.2,4-9.2,10.2s4,10.3,9.9,14.3l9.2,6.6c.9.6,1.8,1.3,2.7,2,.2.1.4.2.6.2.5,0,1-.3,1-.9h0v-14c0-12.4-4.2-18.3-13.1-18.4h-.9c0,0-.1,0-.2,0v-.2c0,0,0,.2,0,.2Z"/>
    <path d="M-32.7-344.2c3.9,0,7.4.6,10.5,1.8,3.1,1.2,5.8,3,8,5.5,4.3,4.9,6.7,12.1,6.7,21.9,0,.8.6,1.3,1.3,1.3s.8-.2,1.1-.6l15.6-26c.2-.4.7-.6,1.1-.6h12.1c.6,0,1.1.5,1.2,1,0,.2,0,.4,0,.5,0,.1,0,.3-.2.4L1.9-302.7h0c-.2.4-.3.9,0,1.3l23,38,1.1,1.8c.5.8,0,1.9-1.1,1.9h-13.1c-.4,0-.9-.2-1.1-.6l-15.8-26.4c-.3-.4-.7-.6-1.1-.6-.6,0-1.3.5-1.3,1.3v.4c0,13.1-4.2,21.7-11.7,26-3.6,2-7.9,3.1-12.9,3.2-.2,0-.4,0-.6,0s-.4,0-.6,0c-5,0-9.3-1.1-12.9-3.2-7.5-4.3-11.7-12.9-11.7-26v-29.4c0-14.6,5.4-23.8,14.7-27.4,2.1-.8,4.4-1.3,6.8-1.6.3,0,.7,0,1,0,.2,0,.3,0,.5,0,.2,0,.5,0,.7,0,.2,0,.5,0,.7,0,.2,0,.4,0,.6,0h.1M-20.2-299.9c.7,0,1.3-.5,1.3-1.3h0v-13.9c0-13.5-5-18.5-13.4-18.7h-.9c0,0-.2,0-.2,0h0c-5.7.3-9.5,3.7-9.5,10.5s4.4,10.7,10,14.5l9.2,6.6c.9.7,1.8,1.3,2.7,2,.2.2.5.3.8.3M-32.7-267c.2,0,.4,0,.7,0h0c6.7-.2,10.9-4.3,10.9-10.9s-4.3-11.6-10.1-15.6l-9-6.3c-1.4-1-2.8-2-4.1-3.1-.2-.2-.5-.3-.8-.3-.7,0-1.3.5-1.3,1.3v16.2c0,13.4,4.9,18.4,13.1,18.7.2,0,.4,0,.7,0M-32.7-344.7h-.1c-.2,0-.4,0-.6,0h-.2c-.2,0-.3,0-.5,0,0,0,0,0,0,0-.1,0-.3,0-.4,0h-.2s-.3,0-.3,0h-.2c-.2,0-.4,0-.5,0-.2,0-.3,0-.5,0-2.5.3-4.9.8-6.9,1.6-9.8,3.8-15,13.4-15,27.8v29.4c0,12.8,4.1,22,12,26.4,3.6,2.1,8,3.2,13.1,3.2.1,0,.2,0,.3,0,.1,0,.2,0,.3,0,.2,0,.4,0,.6,0,5.1,0,9.5-1.2,13.1-3.2,7.9-4.5,12-13.4,12-26.4v-.4c0-.5.4-.8.8-.8s.5,0,.6.4l15.8,26.4c.3.5.9.9,1.5.9h13.1c.6,0,1.2-.3,1.5-.9.3-.6.3-1.2,0-1.8l-1.1-1.8-23-37.9c-.1-.2-.1-.5,0-.7h0c0,0,22.8-36.5,22.8-36.5.1-.2.2-.3.2-.6,0-.3,0-.5,0-.7-.2-.8-.9-1.4-1.7-1.4h-12.1c-.6,0-1.2.3-1.5.8l-15.6,26c-.2.3-.5.4-.6.4-.4,0-.8-.3-.8-.8,0-9.7-2.3-17.1-6.8-22.2-2.2-2.5-5-4.4-8.2-5.6-3.1-1.2-6.7-1.8-10.7-1.8h0ZM-20.2-300.4c-.2,0-.3,0-.5-.2-1-.8-1.9-1.4-2.8-2l-9.2-6.6c-8.1-5.5-9.8-9.6-9.8-14.1s3.3-9.7,9-10h0s0,0,0,0c0,0,0,0,.1,0s0,0,0,0h.9c5.5.1,12.9,2.1,12.9,18.2v13.9h0c0,.5-.4.8-.8.8h0ZM-32.7-267.5c-.2,0-.4,0-.6,0-8.6-.3-12.7-6-12.7-18.2v-16.2c0-.5.4-.8.8-.8.2,0,.3,0,.5.2,1.3,1.1,2.7,2.1,4.1,3.1l9,6.3c4.9,3.4,9.9,7.8,9.9,15.2s-3.9,10.2-10.4,10.4h-.5s0,0,0,0h0Z"/>
  </g>
  <g>
    <path class="st6" d="M214.2-350c-16-.2-24.8-10.7-24.8-29.4v-29.4c0-17.3,7.7-27.7,21.7-29.2.3,0,.7,0,1,0h.5c.2,0,.5,0,.7,0,.2,0,.3,0,.4,0h.3c.2,0,.4,0,.6,0h.1c16.4,0,25.4,10.4,25.4,29.4,0,.4.2.6.3.7.2.2.5.3.7.3s.7-.2.9-.5l15.6-26c.3-.5.8-.7,1.3-.7h12.1c.6,0,1.1.3,1.3.8.3.5.3,1.1,0,1.5l-22.9,36.5c-.1.3-.1.7,0,1l24.1,39.7c.3.5.3,1,0,1.5-.3.5-.8.8-1.3.8h-13.1c-.5,0-1-.3-1.3-.7l-15.8-26.4c-.2-.3-.5-.5-.9-.5s-1,.4-1,1v.4c0,18.7-8.8,29.2-24.8,29.4-.2,0-.4,0-.6,0h-.6ZM202.3-396.7c-.5,0-1,.4-1,1v16.2c0,12.3,4.1,18.2,12.9,18.4.2,0,.4,0,.6,0s.3,0,.4,0h.2c6.6-.3,10.6-4.2,10.6-10.7s-5.1-12-10-15.4l-9-6.3c-1.5-1-2.8-2.1-4.1-3.1-.2-.2-.4-.2-.6-.2ZM214-427.2c-5.9.3-9.2,4-9.2,10.2s4,10.3,9.9,14.3l9.2,6.6c1,.7,1.9,1.4,2.7,2,.2.1.4.2.6.2.5,0,1-.3,1-.9v-14c0-12.4-4.2-18.3-13.1-18.4h-.9c0,0-.1,0-.2,0v-.2c0,0,0,.2,0,.2Z"/>
    <path d="M214.8-437.9c15.7,0,25.2,9.7,25.2,29.2,0,.8.6,1.3,1.3,1.3s.8-.2,1.1-.6l15.6-26c.2-.4.6-.6,1.1-.6h12.1c1,0,1.6,1.1,1.1,1.9l-22.8,36.4h0c-.3.4-.3.9,0,1.3l24.1,39.7c.5.8,0,1.9-1.1,1.9h-13.1c-.4,0-.9-.2-1.1-.6l-15.8-26.4c-.3-.4-.7-.6-1.1-.6-.6,0-1.3.5-1.3,1.3v.4c0,19.3-9.2,28.9-24.6,29.2-.2,0-.4,0-.6,0s-.4,0-.6,0c-15.4-.2-24.6-9.8-24.6-29.2v-29.4c0-17.9,8-27.5,21.5-29,.3,0,.7,0,1,0,.2,0,.3,0,.5,0,.2,0,.5,0,.7,0h0c.2,0,.5,0,.7,0,.2,0,.4,0,.6,0h.1M227.3-393.6c.7,0,1.3-.5,1.3-1.3h0s0-13.9,0-13.9c0-13.5-5-18.5-13.4-18.7h-.9c0,0-.2,0-.3,0h0c-5.7.3-9.5,3.7-9.5,10.5s4.4,10.7,10,14.5l9.2,6.6c.9.7,1.9,1.3,2.7,2,.2.2.5.3.8.3M214.8-360.7c.2,0,.4,0,.7,0h0c6.7-.2,10.9-4.3,10.9-10.9s-4.3-11.6-10.1-15.6l-9-6.3c-1.4-1-2.8-2-4.1-3.1-.2-.2-.5-.3-.8-.3-.7,0-1.3.5-1.3,1.3v16.2c0,13.4,4.9,18.4,13.1,18.7.2,0,.4,0,.7,0M214.8-438.4h-.1c-.2,0-.4,0-.6,0h-.3c-.2,0-.3,0-.4,0-.2,0-.5,0-.7,0h-.3s-.2,0-.2,0c-.4,0-.7,0-1,.1-14.1,1.5-21.9,12-21.9,29.5v29.4c0,18.9,8.9,29.4,25.1,29.7.1,0,.2,0,.3,0,.1,0,.2,0,.3,0,.2,0,.4,0,.6,0,16.2-.2,25.1-10.8,25.1-29.7v-.4c0-.5.4-.8.8-.8s.4,0,.6.4l15.8,26.4c.3.5.9.9,1.5.9h13.1c.6,0,1.2-.3,1.5-.9.3-.6.3-1.2,0-1.8l-24.1-39.7c-.1-.2-.1-.5,0-.7h0c0,0,22.8-36.5,22.8-36.5.3-.6.4-1.2,0-1.8-.3-.6-.9-.9-1.5-.9h-12.1c-.6,0-1.2.3-1.5.9l-15.6,26c-.2.3-.5.4-.6.4-.4,0-.8-.3-.8-.8,0-19.1-9.1-29.7-25.7-29.7h0ZM227.3-394.1c-.2,0-.3,0-.5-.2-.8-.6-1.7-1.3-2.8-2l-9.2-6.6c-8.1-5.5-9.8-9.6-9.8-14.1s3.3-9.7,9-10h0s0,0,0,0c0,0,0,0,.2,0s0,0,0,0h.9c5.5.1,12.9,2.1,12.9,18.2v13.9h0c0,.5-.4.8-.8.8h0ZM214.7-361.2c-.2,0-.4,0-.6,0-8.6-.3-12.7-6-12.7-18.2v-16.2c0-.5.4-.8.8-.8s.3,0,.5.2c1.3,1.1,2.6,2.1,4.1,3.1l9,6.3c4.9,3.4,9.9,7.8,9.9,15.2s-3.9,10.2-10.4,10.4h-.3c0,0-.2,0-.3,0h0Z"/>
  </g>
  <g>
    <path class="st6" d="M63.9-406.3c-.2,0-.4,0-.6,0-16-.2-24.8-10.7-24.8-29.4v-.4c0-.7-.5-1-1-1s-.7.2-.9.5l-15.8,26.4c-.3.5-.8.7-1.3.7H6.4c-.6,0-1.1-.3-1.3-.8s-.3-1.1,0-1.5l24.1-39.7c.2-.3.2-.7,0-1l-22.9-36.5c-.3-.5-.3-1.1,0-1.5s.8-.8,1.3-.8h12.1c.5,0,1,.3,1.3.7l15.6,26c.2.3.5.5.9.5s1-.4,1-1c0-19,9-29.4,25.4-29.4h.1c.2,0,.4,0,.6,0,0,0,.6,0,.7,0,.2,0,1,0,1,0h.2c.3,0,.7,0,1,.1,14,1.5,21.7,11.9,21.7,29.2v29.4c0,18.7-8.8,29.2-24.8,29.4h-.6ZM64-417.3c.2,0,.4,0,.6,0,8.8-.3,12.9-6.1,12.9-18.4v-16.2c0-.6-.5-1-1-1s-.5,0-.6.2c-1.2,1.1-2.6,2.1-4.1,3.1l-9,6.3c-5,3.4-10,7.9-10,15.4s4,10.4,10.6,10.7h.3c.1,0,.3,0,.3,0ZM50.4-451c0,.6.6.9,1,.9s.4,0,.6-.2c.8-.6,1.7-1.3,2.7-2l9.2-6.6c6-4,9.9-8,9.9-14.3s-3.4-9.9-9.2-10.2c-.1,0-.2,0-.2,0h-.9c-9,.2-13.1,6-13.1,18.4v14Z"/>
    <path d="M64.1-494.2c.2,0,.4,0,.6,0,.2,0,.5,0,.7,0h0c.2,0,.5,0,.7,0,.2,0,.3,0,.5,0,.3,0,.7,0,1,0,13.5,1.4,21.5,11.1,21.5,29v29.4c0,19.3-9.2,28.9-24.6,29.2-.2,0-.4,0-.6,0s-.4,0-.6,0c-15.4-.2-24.6-9.8-24.6-29.2v-.4c0-.8-.6-1.3-1.3-1.3-.4,0-.8.2-1.1.6l-15.8,26.4c-.2.4-.6.6-1.1.6H6.4c-1,0-1.6-1.1-1.1-1.9l24.1-39.7c.2-.4.2-.9,0-1.3h0s-22.8-36.4-22.8-36.4c-.5-.8,0-1.9,1.1-1.9h12.1c.4,0,.9.2,1.1.6l15.6,26c.3.4.7.6,1.1.6.6,0,1.3-.5,1.3-1.3,0-19.5,9.5-29.2,25.2-29.2h.1M50.2-451.2h0c0,.7.6,1.3,1.3,1.3s.5,0,.8-.3c.9-.7,1.8-1.4,2.7-2l9.2-6.6c5.6-3.8,10-7.7,10-14.5s-3.8-10.2-9.5-10.5h0c0,0-.2,0-.3,0h-.9c-8.4.2-13.4,5.2-13.4,18.7v13.9M63.9-417c.2,0,.4,0,.7,0,8.3-.2,13.1-5.2,13.1-18.7v-16.2c0-.8-.6-1.3-1.3-1.3s-.6,0-.8.3c-1.3,1.1-2.7,2.1-4.1,3.1l-9,6.3c-5.8,4-10.1,8.5-10.1,15.6s4.2,10.7,10.9,10.9h0c.2,0,.4,0,.7,0M64.1-494.7h-.1c-16.5,0-25.7,10.5-25.7,29.7,0,.5-.4.8-.8.8s-.4,0-.6-.4l-15.6-26c-.3-.5-.9-.9-1.5-.9H7.6c-.7,0-1.2.3-1.5.9-.3.6-.3,1.2,0,1.8l22.8,36.4h0c.1.3,0,.6,0,.8l-24.1,39.7c-.3.6-.3,1.2,0,1.8.3.6.9.9,1.5.9h13.1c.6,0,1.2-.3,1.5-.9l15.8-26.4c.2-.3.5-.4.6-.4.4,0,.8.3.8.8v.4c0,18.9,8.9,29.4,25.1,29.7.2,0,.4,0,.6,0s.2,0,.3,0c0,0,.2,0,.3,0,16.2-.2,25.1-10.8,25.1-29.7v-29.4c0-17.5-7.8-28-21.9-29.5-.3,0-.7,0-1,0h-.2s-.3,0-.3,0c-.2,0-.5,0-.7,0-.1,0-.3,0-.4,0h-.3c-.2,0-.4,0-.6,0h0ZM50.7-451.1h0v-14c0-16.1,7.4-18.1,12.9-18.2h.9s0,0,0,0c0,0,.1,0,.1,0h0s0,0,0,0c5.7.3,9,3.9,9,10s-3.9,10.1-9.8,14.1l-9.2,6.6c-1,.7-1.9,1.4-2.8,2-.1.1-.3.2-.5.2-.3,0-.7-.3-.8-.7h0ZM63.6-417.5h-.3c-6.5-.2-10.4-4.1-10.4-10.4s5-11.8,9.9-15.2l9-6.3c1.5-1,2.9-2.1,4.1-3.1.1-.1.3-.2.5-.2.4,0,.8.3.8.8v16.2c0,12.1-4,17.9-12.6,18.2-.2,0-.4,0-.6,0h0c-.1,0-.2,0-.3,0h0Z"/>
  </g>
  <path d="M403.9-229.6v23.1c0,15.8-8.4,23.7-22.1,23.7h-20.6c-.3,0-.5-.2-.5-.5v-69.4c0-.3.2-.5.5-.5h20.6c13.7,0,22.1,7.9,22.1,23.7h0s0,0,0,0ZM390.3-206.3v-23.5c0-8.6-3.2-11.5-8.5-11.5h-7c-.3,0-.5.2-.5.5v45.4c0,.3.2.5.5.5h7c5.3,0,8.5-2.8,8.5-11.5h0Z"/>
  <path d="M425.1-202.5c-.3,0-.6.3-.5.6,1.2,5.8,5,9,11,9s7-1.5,8.3-4.4c0-.2.3-.3.5-.3h12.8c.3,0,.6.3.5.7-3.1,9.9-11.1,15.1-22.4,15.1s-23.8-10.1-23.8-24.4,10-24.4,23.8-24.4,23.8,10.1,23.8,24.4,0,2.2-.2,3.3c0,.3-.2.5-.5.5h-33.2ZM425.2-210.5h20c.3,0,.6-.3.5-.6-1.3-5.5-5-8.4-10.5-8.4s-9.2,2.9-10.5,8.4c0,.3.2.6.5.6h0Z"/>
  <path d="M486.2-181.9c-11.9,0-21.1-5.8-21.4-15.9,0-.3.2-.5.5-.5h12.1c.3,0,.5.2.5.5.3,4.3,3.7,6.4,8.2,6.4s6.7-1.5,6.7-4.5c0-9.2-27.1-.9-27.1-20.3s8.3-14.5,19.1-14.5,20,6.7,20.4,15.3c0,.3-.2.5-.5.5h-12.1c-.3,0-.5-.2-.5-.5-.3-3.3-3.2-5.8-7.1-5.8s-6.2,1.6-6.2,4.3c0,8.3,27.4.7,27.4,20.1s-8.5,14.8-19.9,14.8h0Z"/>
  <path d="M513.5-245.9c0-4.4,3.5-7.8,8.1-7.8s8.2,3.4,8.2,7.8-3.4,7.9-8.2,7.9-8.1-3.5-8.1-7.9ZM514.8-183.3v-46c0-.3.2-.5.5-.5h12.6c.3,0,.5.2.5.5v46c0,.3-.2.5-.5.5h-12.6c-.3,0-.5-.2-.5-.5h0Z"/>
  <path d="M536.9-206.3c0-14.7,9.1-24.4,21.8-24.4s9.8,2.1,13.2,5.8c.3.3.9.1.9-.4v-4c0-.3.2-.5.5-.5h12.4c.3,0,.5.2.5.5v46.9c0,14.4-10.7,24-24.1,24s-22.2-8-24.1-20.1c0-.3.2-.6.5-.6h12.2c.2,0,.5.2.5.4,1,5.4,5.1,9,10.6,9s10.8-5.1,10.8-12.5v-5c0-.5-.6-.7-.9-.4-3.4,3.5-7.9,5.6-13,5.6-12.7,0-21.8-9.8-21.8-24.4h0s0,0,0,0ZM572.6-206.3c0-7.4-4.7-12.3-11.2-12.3s-11.2,4.9-11.2,12.3,4.8,12.3,11.2,12.3,11.2-4.9,11.2-12.3Z"/>
  <path d="M619.5-219.5c-5.4,0-8.5,3.7-8.5,10.7v25.4c0,.3-.2.5-.5.5h-12.6c-.3,0-.5-.2-.5-.5v-46c0-.3.2-.5.5-.5h12.3c.3,0,.5.2.5.5v4.6c0,.5.6.7.9.3,2.9-4.1,7.5-6.3,12.8-6.3,9.8,0,17.1,6.3,17.1,18.9v28.5c0,.3-.2.5-.5.5h-12.6c-.3,0-.5-.2-.5-.5v-25.4c0-7-3.1-10.7-8.5-10.7h0Z"/>
  <g>
    <path class="st6" d="M452.4-497.1c-14.2,0-22.1-8.7-22.1-24.4v-23.6c0-15.7,7.8-24.4,22.1-24.4s22.1,8.7,22.1,24.4v23.6c0,15.7-7.8,24.4-22.1,24.4ZM452.4-557.1c-5.6,0-8.1,3.6-8.1,11.8v24.1c0,8.3,2.4,11.8,8.1,11.8s8.1-3.5,8.1-11.8v-24.1c0-8.2-2.5-11.8-8.1-11.8Z"/>
    <path d="M452.4-569.2c13.5,0,21.8,8,21.8,24.1v23.6c0,16.2-8.3,24.1-21.8,24.1s-21.8-7.9-21.8-24.1v-23.6c0-16.2,8.3-24.1,21.8-24.1M452.4-509.1c5.3,0,8.4-3,8.4-12.1v-24.1c0-9.1-3.2-12.1-8.4-12.1s-8.4,3-8.4,12.1v24.1c0,9.1,3.1,12.1,8.4,12.1M452.4-569.7c-14.4,0-22.3,8.8-22.3,24.6v23.6c0,15.9,7.9,24.6,22.3,24.6s22.3-8.8,22.3-24.6v-23.6c0-15.9-7.9-24.6-22.3-24.6h0ZM452.4-509.6c-5.5,0-7.9-3.5-7.9-11.6v-24.1c0-10.2,4.2-11.6,7.9-11.6s7.9,1.3,7.9,11.6v24.1c0,8.1-2.3,11.6-7.9,11.6h0Z"/>
  </g>
  <g>
    <path class="st6" d="M487.1-498.2c-1.6,0-2.9-1.3-2.9-2.9v-64.4c0-1.6,1.3-2.9,2.9-2.9h8.2c1.6,0,2.9,1.3,2.9,2.9v28.4c0,.2.2.3.3.3s.2,0,.2-.2v-.2h0l13.3-30.7c.1-.3.4-.5.7-.5h13.2c.3,0,.5.1.6.4.1.2.2.5,0,.7l-15.5,31.9c0,0,0,.1,0,.2l16.4,35.8c.1.2,0,.5,0,.7-.1.2-.4.3-.6.3h-14.2c-.3,0-.6-.2-.7-.5l-13.2-31c0-.1-.2-.2-.2-.2-.1,0-.3,0-.3.3v28.5c0,1.6-1.3,2.9-2.9,2.9h-8.2Z"/>
    <path d="M525.8-568.1c.4,0,.6.4.5.7l-15.5,31.9c0,.1,0,.3,0,.4l16.4,35.8c.1.3,0,.7-.5.7h-14.2c-.2,0-.4-.1-.5-.3l-13.2-31c0-.2-.3-.3-.5-.3-.3,0-.5.2-.5.5v28.5c0,1.4-1.2,2.6-2.6,2.6h-8.2c-1.4,0-2.6-1.2-2.6-2.6v-64.4c0-1.4,1.2-2.6,2.6-2.6h8.2c1.4,0,2.6,1.2,2.6,2.6v28.4c0,.3.3.5.5.5s.4,0,.5-.3h0s13.4-30.9,13.4-30.9c0-.2.3-.3.5-.3h13.2M525.8-568.6h-13.2c-.4,0-.8.2-.9.6l-13.2,30.6h0v.3c-.1,0-.1-28.4-.1-28.4,0-1.7-1.4-3.1-3.1-3.1h-8.2c-1.7,0-3.1,1.4-3.1,3.1v64.4c0,1.7,1.4,3.1,3.1,3.1h8.2c1.7,0,3.1-1.4,3.1-3.1v-28.5l13.2,31c.2.4.5.6.9.6h14.2c.3,0,.7-.2.8-.5.2-.3.2-.6,0-1l-16.4-35.8,15.5-31.9c.2-.3.1-.7,0-1-.2-.3-.5-.5-.8-.5h0Z"/>
  </g>
  <g>
    <path class="st6" d="M549.3-497.1c-12,0-20-7.6-20-18.8v-3.2c0-1.6,1.3-2.9,2.9-2.9h7.8c1.6,0,2.9,1.3,2.9,2.9v2.6c0,3.8,1.8,6.6,4.8,7.3.5.1,1,.2,1.5.2h0c2,0,3.8-.9,5-2.6,1.4-1.8,1.8-4.1,1.2-6.3-.9-3.1-3.3-5.4-7-8.1l-7.7-5.8c-5.2-3.9-10.6-9.2-10.6-19.4s6.9-18.3,18.8-18.4h.2c11.8,0,19.2,7.2,19.2,18.8v2.2c0,1.6-1.3,2.9-2.9,2.9h-7.7c-1.6,0-2.9-1.3-2.9-2.9v-2c0-4.7-2-7.2-5.8-7.2s-5.6,2.3-5.6,5.9,2.8,6.9,7,10l7.9,5.9c5.1,3.7,10.9,9.3,10.9,19.2s-7.9,19.6-20,19.6Z"/>
    <path d="M549.2-569.2c10.5,0,18.9,5.9,18.9,18.6v2.2c0,1.4-1.2,2.6-2.6,2.6h-7.7c-1.4,0-2.6-1.2-2.6-2.6v-2c0-5.1-2.3-7.4-6-7.4s-5.9,2.2-5.9,6.1,2.8,7.1,7.1,10.2l7.9,5.9c6,4.5,10.8,10,10.8,19,0,12.9-8.9,19.3-19.8,19.3s-19.8-6.5-19.8-18.6v-3.2c0-1.4,1.2-2.6,2.6-2.6h7.8c1.4,0,2.6,1.2,2.6,2.6v2.6c0,4.1,2,6.8,5,7.6.5.1,1.1.2,1.6.2,4.4,0,7.8-4.6,6.5-9.2-.9-3.3-3.5-5.6-7.1-8.2l-7.7-5.8c-6-4.5-10.5-9.9-10.5-19.2s8.4-18.1,18.8-18.1h0M549.2-569.7h-.5c-12,.2-18.8,7-18.8,18.6s5.7,15.9,10.7,19.6l7.7,5.8c3.6,2.6,6,4.9,6.9,7.9.6,2.1.2,4.4-1.1,6.1-1.2,1.6-3,2.5-4.8,2.5s-1,0-1.5-.2c-2.9-.7-4.6-3.4-4.6-7.1v-2.6c0-1.7-1.4-3.1-3.1-3.1h-7.8c-1.7,0-3.1,1.4-3.1,3.1v3.2c0,11.4,8.1,19.1,20.3,19.1s20.3-7.8,20.3-19.8-5.9-15.7-11-19.4l-7.9-5.9c-4.1-3.1-6.9-5.4-6.9-9.8s2.1-5.6,5.4-5.6,5.5,3.8,5.5,6.9v2c0,1.7,1.4,3.1,3.1,3.1h7.7c1.7,0,3.1-1.4,3.1-3.1v-2.2c0-11.8-7.4-19.1-19.4-19.1h0Z"/>
  </g>
  <g>
    <path class="st6" d="M816-253.9c-14.2,0-22.1-8.7-22.1-24.4v-23.6c0-15.7,7.8-24.4,22.1-24.4s22.1,8.7,22.1,24.4v23.6c0,15.7-7.8,24.4-22.1,24.4ZM816-314c-5.6,0-8.1,3.6-8.1,11.8v24.1c0,8.3,2.4,11.8,8.1,11.8s8.1-3.5,8.1-11.8v-24.1c0-8.2-2.5-11.8-8.1-11.8Z"/>
    <path d="M816-326c13.5,0,21.8,8,21.8,24.1v23.6c0,16.2-8.3,24.1-21.8,24.1s-21.8-7.9-21.8-24.1v-23.6c0-16.2,8.3-24.1,21.8-24.1M816-265.9c5.3,0,8.4-3,8.4-12.1v-24.1c0-9.1-3.2-12.1-8.4-12.1s-8.4,3-8.4,12.1v24.1c0,9.1,3.1,12.1,8.4,12.1M816-326.5c-14.4,0-22.3,8.8-22.3,24.6v23.6c0,15.9,7.9,24.6,22.3,24.6s22.3-8.8,22.3-24.6v-23.6c0-15.9-7.9-24.6-22.3-24.6h0ZM816-266.4c-5.5,0-7.9-3.5-7.9-11.6v-24.1c0-10.2,4.2-11.6,7.9-11.6s7.9,1.3,7.9,11.6v24.1c0,8.1-2.3,11.6-7.9,11.6h0Z"/>
  </g>
  <g>
    <path class="st6" d="M848.5-255c-.4,0-.8-.3-.8-.8v-68.6c0-.4.3-.8.8-.8h12.4c.4,0,.8.3.8.8v30.5c0,.2.2.3.3.3s.2,0,.2-.2v-.2c0,0,0,0,0,0l13.3-30.7c.1-.3.4-.5.7-.5h13.2c.3,0,.5.1.6.4.1.2.2.5,0,.7l-15.5,31.9c0,0,0,.1,0,.2l16.4,35.8c.1.2,0,.5,0,.7-.1.2-.4.3-.6.3h-14.2c-.3,0-.6-.2-.7-.5l-13.2-31c0-.1-.2-.2-.2-.2-.1,0-.3,0-.3.3v30.6c0,.4-.3.8-.8.8h-12.4Z"/>
    <path d="M889.4-324.9c.4,0,.6.4.5.7l-15.5,31.9c0,.1,0,.3,0,.4l16.4,35.8c.1.3,0,.7-.5.7h-14.2c-.2,0-.4-.1-.5-.3l-13.2-31c0-.2-.3-.3-.5-.3-.3,0-.5.2-.5.5v30.6c0,.3-.2.5-.5.5h-12.4c-.3,0-.5-.2-.5-.5v-68.6c0-.3.2-.5.5-.5h12.4c.3,0,.5.2.5.5v30.5c0,.3.3.5.5.5s.4,0,.5-.3h0l13.4-30.9c0-.2.3-.3.5-.3h13.2M889.4-325.4h-13.2c-.4,0-.8.2-.9.6l-13.2,30.6h0v.3c-.1,0-.1-30.5-.1-30.5,0-.6-.5-1-1-1h-12.4c-.6,0-1,.5-1,1v68.6c0,.6.5,1,1,1h12.4c.6,0,1-.5,1-1v-30.6l13.2,31c.2.4.5.6.9.6h14.2c.3,0,.7-.2.8-.5.2-.3.2-.6,0-1l-16.4-35.8,15.5-31.9c.2-.3.1-.7,0-1-.2-.3-.5-.5-.8-.5h0Z"/>
  </g>
  <g>
    <path class="st6" d="M912.8-253.9c-12,0-20-7.6-20-18.8v-5.3c0-.4.3-.8.8-.8h12c.4,0,.8.3.8.8v4.7c0,4.6,2.6,7.5,6.5,7.5s6.4-2.4,6.4-6.2-2.6-7.4-7.3-10.8l-7.7-5.8c-5.2-3.9-10.6-9.2-10.6-19.4s6.9-18.3,18.8-18.4h.2c11.8,0,19.2,7.2,19.2,18.8v4.3c0,.4-.3.8-.8.8h-11.9c-.4,0-.8-.3-.8-.8v-4.1c0-4.7-2-7.2-5.8-7.2s-5.6,2.3-5.6,5.9,2.8,6.9,7,10l7.9,5.9c5.1,3.7,10.9,9.3,10.9,19.2s-7.9,19.6-20,19.6Z"/>
    <path d="M912.7-326c10.5,0,18.9,5.9,18.9,18.6v4.3c0,.3-.2.5-.5.5h-11.9c-.3,0-.5-.2-.5-.5v-4.1c0-5.1-2.3-7.4-6-7.4s-5.9,2.2-5.9,6.1,2.8,7.1,7.1,10.2l7.9,5.9c6,4.5,10.8,10,10.8,19,0,12.9-8.9,19.3-19.8,19.3s-19.8-6.5-19.8-18.6v-5.3c0-.3.2-.5.5-.5h12c.3,0,.5.2.5.5v4.7c0,4.8,2.8,7.8,6.8,7.8s6.7-2.4,6.7-6.4-3-7.8-7.4-11l-7.7-5.8c-6-4.5-10.5-9.9-10.5-19.2s8.4-18.1,18.8-18.1h0M912.7-326.5h-.5c-12,.2-18.8,7-18.8,18.6s5.7,15.9,10.7,19.6l7.7,5.8c4.7,3.4,7.2,6.1,7.2,10.6s-2.4,5.9-6.2,5.9-6.3-2.9-6.3-7.3v-4.7c0-.6-.5-1-1-1h-12c-.6,0-1,.5-1,1v5.3c0,11.4,8.1,19.1,20.3,19.1s20.3-7.8,20.3-19.8-5.9-15.7-11-19.4l-7.9-5.9c-4.1-3.1-6.9-5.4-6.9-9.8s2.1-5.6,5.4-5.6,5.5,3.8,5.5,6.9v4.1c0,.6.5,1,1,1h11.9c.6,0,1-.5,1-1v-4.3c0-11.8-7.4-19.1-19.4-19.1h0Z"/>
  </g>
  <path class="st6" d="M216.1-206.1v-23.2c0-15.9,8.1-23.8,21.5-23.8s21.5,7.9,21.5,23.8v23.2c0,16-8.1,23.8-21.5,23.8s-21.5-7.8-21.5-23.8h0ZM245.8-205.9v-23.8c0-8.9-3.1-11.9-8.2-11.9s-8.2,2.9-8.2,11.9v23.8c0,8.9,3,11.9,8.2,11.9s8.2-2.9,8.2-11.9Z"/>
  <path class="st6" d="M283.2-221.3l13.2-30.4c0-.2.3-.3.5-.3h12.9c.4,0,.6.4.5.7l-15.3,31.4c0,.1,0,.3,0,.4l16.1,35.3c.1.3,0,.7-.5.7h-14c-.2,0-.4-.1-.5-.3l-13-30.5c-.2-.5-1-.3-1,.2v30.1c0,.3-.2.5-.5.5h-12.2c-.3,0-.5-.2-.5-.5v-67.5c0-.3.2-.5.5-.5h12.2c.3,0,.5.2.5.5v30c0,.5.7.7,1,.2h0Z"/>
  <path class="st6" d="M332.7-253.1c10.3,0,18.6,5.8,18.6,18.3v4.2c0,.3-.2.5-.5.5h-11.7c-.3,0-.5-.2-.5-.5v-4.1c0-5-2.3-7.3-5.9-7.3s-5.8,2.2-5.8,6,2.7,6.9,6.9,10l7.8,5.8c5.9,4.4,10.6,9.9,10.6,18.7,0,12.7-8.8,19-19.5,19s-19.5-6.4-19.5-18.3v-5.2c0-.3.2-.5.5-.5h11.8c.3,0,.5.2.5.5v4.6c0,4.7,2.7,7.7,6.7,7.7s6.6-2.4,6.6-6.3-2.9-7.7-7.3-10.9l-7.6-5.7c-5.9-4.4-10.3-9.8-10.3-18.9s8.3-17.8,18.5-17.8h0Z"/>
  <rect class="st1" x="-83.2" y="-150.6" width="88.9" height="88.9" rx="13.1" ry="13.1"/>
  <path class="st8" d="M94.2-113.4h-59.6c-6.9,0-12.4,5.6-12.4,12.4v59.6c0,6.9,5.6,12.4,12.4,12.4h59.6c6.9,0,12.4-5.6,12.4-12.4v-59.6c0-6.9-5.6-12.4-12.4-12.4ZM93-55c0,6.9-5.6,12.4-12.4,12.4h-32.3c-6.9,0-12.4-5.6-12.4-12.4v-32.3c0-6.2,4.5-11.3,10.3-12.3.7-.1,1.4-.2,2.1-.2h32.3c1.5,0,2.8.2,4.2.7,4.8,1.7,8.3,6.3,8.3,11.7v32.3Z"/>
  <path class="st1" d="M93-87.3v32.3c0,6.9-5.6,12.4-12.4,12.4h-32.3c-6.9,0-12.4-5.6-12.4-12.4v-32.3c0-6.2,4.5-11.3,10.3-12.3.7-.1,1.4-.2,2.1-.2h32.3c1.5,0,2.8.2,4.2.7,4.8,1.7,8.3,6.3,8.3,11.7Z"/>
  <path class="st4" d="M93-87.3v32.3c0,6.9-5.6,12.4-12.4,12.4h-32.3c-6.9,0-12.4-5.6-12.4-12.4v-32.3c0-6.2,4.5-11.3,10.3-12.3.7-.1,1.4-.2,2.1-.2h32.3c1.5,0,2.8.2,4.2.7,4.8,1.7,8.3,6.3,8.3,11.7Z"/>
  <path class="st8" d="M299.4-565.6h-59.6c-6.9,0-12.4,5.6-12.4,12.4v59.6c0,6.9,5.6,12.5,12.4,12.5h59.6c6.9,0,12.4-5.6,12.4-12.5v-59.6c0-6.9-5.6-12.4-12.4-12.4ZM298.2-507.3c0,6.9-5.6,12.4-12.4,12.4h-32.3c-6.9,0-12.4-5.6-12.4-12.4v-32.3c0-5.5,3.6-10.2,8.6-11.8.6-.2,1.2-.3,1.8-.4.7-.1,1.4-.2,2.1-.2h32.3c1.4,0,2.7.2,3.9.6,0,0,.2,0,.3,0,4.8,1.7,8.3,6.3,8.3,11.7v32.3Z"/>
  <path class="st4" d="M298.2-539.5v32.3c0,6.9-5.6,12.4-12.4,12.4h-32.3c-6.9,0-12.4-5.6-12.4-12.4v-32.3c0-5.5,3.6-10.2,8.6-11.8.6-.2,1.2-.3,1.8-.4.7-.1,1.4-.2,2.1-.2h32.3c1.4,0,2.7.2,3.9.6,0,0,.2,0,.3,0,4.8,1.7,8.3,6.3,8.3,11.7Z"/>
  <path d="M62.2-116.5v3.1h-16v-3.1c0-4.4,3.6-8,8-8s4.2.9,5.7,2.3c1.5,1.5,2.3,3.5,2.3,5.7Z"/>
  <path d="M48.3-99.8h13.9v32.5c0,4.4-3.6,8-8,8s-8-3.6-8-8v-32.4c.7-.1,1.4-.2,2.1-.2Z"/>
  <path d="M84.7-116.5v3.1h-16v-3.1c0-4.4,3.6-8,8-8s4.2.9,5.7,2.3c1.4,1.5,2.3,3.5,2.3,5.7Z"/>
  <path d="M80.5-99.8c1.5,0,2.8.2,4.2.7v31.8c0,4.4-3.6,8-8,8s-8-3.6-8-8v-32.5h11.9Z"/>
  <g class="st11">
    <path class="st9" d="M94.2,22.4h-59.6c-6.9,0-12.4,5.6-12.4,12.4v59.6c0,6.9,5.6,12.4,12.4,12.4h59.6c6.9,0,12.4-5.6,12.4-12.4v-59.6c0-6.9-5.6-12.4-12.4-12.4ZM93,80.8c0,6.9-5.6,12.4-12.4,12.4h-32.3c-6.9,0-12.4-5.6-12.4-12.4v-32.3c0-6.2,4.5-11.3,10.3-12.3.7-.1,1.4-.2,2.1-.2h32.3c1.5,0,2.8.2,4.2.7,4.8,1.7,8.3,6.3,8.3,11.7v32.3Z"/>
    <path class="st1" d="M93,48.5v32.3c0,6.9-5.6,12.4-12.4,12.4h-32.3c-6.9,0-12.4-5.6-12.4-12.4v-32.3c0-6.2,4.5-11.3,10.3-12.3.7-.1,1.4-.2,2.1-.2h32.3c1.5,0,2.8.2,4.2.7,4.8,1.7,8.3,6.3,8.3,11.7Z"/>
    <path class="st2" d="M93,48.5v32.3c0,6.9-5.6,12.4-12.4,12.4h-32.3c-6.9,0-12.4-5.6-12.4-12.4v-32.3c0-6.2,4.5-11.3,10.3-12.3.7-.1,1.4-.2,2.1-.2h32.3c1.5,0,2.8.2,4.2.7,4.8,1.7,8.3,6.3,8.3,11.7Z"/>
    <path d="M62.2,19.3v3.1h-16v-3.1c0-4.4,3.6-8,8-8s4.2.9,5.7,2.3c1.5,1.5,2.3,3.5,2.3,5.7Z"/>
    <path d="M48.3,36.1h13.9v32.5c0,4.4-3.6,8-8,8s-8-3.6-8-8v-32.4c.7-.1,1.4-.2,2.1-.2Z"/>
    <path d="M84.7,19.3v3.1h-16v-3.1c0-4.4,3.6-8,8-8s4.2.9,5.7,2.3c1.4,1.5,2.3,3.5,2.3,5.7Z"/>
    <path d="M80.5,36.1c1.5,0,2.8.2,4.2.7v31.8c0,4.4-3.6,8-8,8s-8-3.6-8-8v-32.5h11.9Z"/>
  </g>
  <g id="Generative_Object__x28_15_x2C__30_x29_">
    <path class="st9" d="M-161.6-55.3l-14.9-36.5c-.8-2.7-2.7-4.9-5.3-5.9-2.2-1-4.5-1.1-6.9-.7l-9.1,1.4h-.3s-.1,0,0,.2c1.3.2,2.5.4,3.7,1,2.2,1.2,3.9,3.3,3.9,5.9v9.3c0,0,0,8.7,0,8.7,0,.9,0,1.8-.1,2.6-1.3.5-2.5.6-3.9.8l-9,1.3c-.7,0-1.3.1-1.9-.2-.3-.1-.7,0-1.2,0v-12.7s0-9.6,0-9.6c.2-3.3,2.5-5.8,5.4-6.7-.3-.2-.7-.1-1.1,0l-9.9,1.4-7.8,1.2c0,0-.1,0-.2.2,3.8.4,7,3.4,7,7.3v7.6s0,12.6,0,12.6c-1.2.3-2.3.5-3.5.6l-9.6,1.3c-.7,0-1.3-.3-2.1,0-.2,0-.6-.1-.9-.2v-10.7c0,0,0-10.6,0-10.6,0-2,.7-3.9,2-5.4.9-1,1.9-1.7,3.1-2.2-.2,0-.5,0-.8,0l-14.9,2.2-6.9,1.1c-5.4.8-10.5,6-10.5,11.9v45.4c0,1.9.2,3.4,1,5.1l8.1,19.3,7.1,17c1.1,2.6,4.3,4.2,6.9,4.6h3.4c.6,0,1-.2,1.7-.3l44.8-7,11.8-1.8c3-.4,5.7-1.4,7.9-3.5,1.6-1.5,3.2-3.6,3.2-6v-46.6c0-1.2-.3-2.3-.8-3.5ZM-178-6.1c-1.7,1.3-3.6,2.1-5.7,2.4l-19.4,3-11.8,1.9c-2,.3-3.8.5-5.7.2-3.9-.7-7.1-3.7-7.1-7.9v-23.6c0-1,.2-1.9.5-2.9,0,0,.2,0,.2,0s0,0,0,0c.3-1.3,1.1-2.6,2.1-3.7,2.4-2.7,5.4-4.3,8.9-4.9l3.1-.5,6.3-1,4.1-.5,6.9-1.1,5-.8,4.7-.7c3.3-.5,6.8,0,9.3,2.1,1.5,1.2,2.4,2.7,2.8,4.6V-12.7c-.5,2.7-2,5-4.2,6.6Z"/>
    <path d="M-212.8-66.1c-1.2.3-2.3.5-3.5.6l-9.6,1.3c-.7,0-1.3-.3-2.1,0-.2,0-.6-.1-.9-.2v-10.7c0,0,0-10.6,0-10.6,0-2,.7-3.9,2-5.4.9-1,1.9-1.7,3.1-2.2s2.6-.7,3.9-.5c3.8.4,7,3.4,7,7.3v7.6s0,12.6,0,12.6Z"/>
    <path d="M-190.5-69.3c-1.3.5-2.5.6-3.9.8l-9,1.3c-.7,0-1.3.1-1.9-.2-.3-.1-.7,0-1.2,0v-12.7s0-9.6,0-9.6c.2-3.3,2.5-5.8,5.4-6.7.9-.3,1.8-.6,2.9-.5,1.3.2,2.5.4,3.7,1,2.2,1.2,3.9,3.3,3.9,5.9v9.3c0,0,0,8.7,0,8.7,0,.9,0,1.8-.1,2.6Z"/>
    <path class="st2" d="M-173.8-12.7c-.5,2.7-2,5-4.2,6.6-1.7,1.3-3.6,2.1-5.7,2.4l-19.4,3-11.8,1.9c-2,.3-3.8.5-5.7.2-3.9-.7-7.1-3.7-7.1-7.9v-23.6c0-1,.2-1.9.5-2.9,0,0,.2,0,.2,0,2.9,3.6,8.3,4,11.7,1,1.4-1.2,2.3-2.8,2.5-4.7v-5.4s6.3-1,6.3-1v3c.5,3.4,3,6.1,6.4,6.7,2.9.5,5.8-.3,7.8-2.5,1.1-1.2,1.9-2.6,1.9-4.2v-5.2c0-.2,0-.2,0-.3l4.7-.7c3.3-.5,6.8,0,9.3,2.1,1.5,1.2,2.4,2.7,2.8,4.6V-12.7Z"/>
    <path d="M-190.4-45.1v5.2c0,1.6-.9,3-2,4.2-2,2.2-4.9,3-7.8,2.5-3.4-.6-5.9-3.3-6.3-6.7v-3c0,0,4-.5,4-.5l6.9-1.1,5-.8c.1,0,.1.2.1.3Z"/>
    <path d="M-212.8-42.1v5.4c-.2,1.8-1.1,3.5-2.5,4.7-3.4,2.9-8.8,2.6-11.7-1t0,0c.3-1.3,1.1-2.6,2.1-3.7,2.4-2.7,5.4-4.3,8.9-4.9l3.1-.5Z"/>
  </g>
  <g>
    <path class="st6" d="M339.8,109.7c-14.2,0-22.1-8.7-22.1-24.4v-23.6c0-15.7,7.8-24.4,22.1-24.4s22.1,8.7,22.1,24.4v23.6c0,15.7-7.8,24.4-22.1,24.4ZM339.8,49.6c-5.6,0-8.1,3.6-8.1,11.8v24.1c0,8.3,2.4,11.8,8.1,11.8s8.1-3.5,8.1-11.8v-24.1c0-8.2-2.5-11.8-8.1-11.8Z"/>
    <path d="M339.8,37.6c13.5,0,21.8,8,21.8,24.1v23.6c0,16.2-8.3,24.1-21.8,24.1s-21.8-7.9-21.8-24.1v-23.6c0-16.2,8.3-24.1,21.8-24.1M339.8,97.6c5.3,0,8.4-3,8.4-12.1v-24.1c0-9.1-3.2-12.1-8.4-12.1s-8.4,3-8.4,12.1v24.1c0,9.1,3.1,12.1,8.4,12.1M339.8,37.1c-14.4,0-22.3,8.8-22.3,24.6v23.6c0,15.9,7.9,24.6,22.3,24.6s22.3-8.8,22.3-24.6v-23.6c0-15.9-7.9-24.6-22.3-24.6h0ZM339.8,97.1c-5.5,0-7.9-3.5-7.9-11.6v-24.1c0-10.2,4.2-11.6,7.9-11.6s7.9,1.3,7.9,11.6v24.1c0,8.1-2.3,11.6-7.9,11.6h0Z"/>
  </g>
  <g>
    <path class="st6" d="M374.4,108.6c-1.6,0-2.9-1.3-2.9-2.9V41.3c0-1.6,1.3-2.9,2.9-2.9h8.2c1.6,0,2.9,1.3,2.9,2.9v28.4c0,.2.2.3.3.3s.2,0,.2-.2v-.2h0l13.3-30.7c.1-.3.4-.5.7-.5h13.2c.3,0,.5.1.6.4.1.2.2.5,0,.7l-15.5,31.9c0,0,0,.1,0,.2l16.4,35.8c.1.2,0,.5,0,.7-.1.2-.4.3-.6.3h-14.2c-.3,0-.6-.2-.7-.5l-13.2-31c0-.1-.2-.2-.2-.2-.1,0-.3,0-.3.3v28.5c0,1.6-1.3,2.9-2.9,2.9h-8.2Z"/>
    <path d="M413.2,38.7c.4,0,.6.4.5.7l-15.5,31.9c0,.1,0,.3,0,.4l16.4,35.8c.1.3,0,.7-.5.7h-14.2c-.2,0-.4-.1-.5-.3l-13.2-31c0-.2-.3-.3-.5-.3-.3,0-.5.2-.5.5v28.5c0,1.4-1.2,2.6-2.6,2.6h-8.2c-1.4,0-2.6-1.2-2.6-2.6V41.3c0-1.4,1.2-2.6,2.6-2.6h8.2c1.4,0,2.6,1.2,2.6,2.6v28.4c0,.3.3.5.5.5s.4,0,.5-.3h0s13.4-30.9,13.4-30.9c0-.2.3-.3.5-.3h13.2M413.2,38.2h-13.2c-.4,0-.8.2-.9.6l-13.2,30.6h0v.3c-.1,0-.1-28.4-.1-28.4,0-1.7-1.4-3.1-3.1-3.1h-8.2c-1.7,0-3.1,1.4-3.1,3.1v64.4c0,1.7,1.4,3.1,3.1,3.1h8.2c1.7,0,3.1-1.4,3.1-3.1v-28.5l13.2,31c.2.4.5.6.9.6h14.2c.3,0,.7-.2.8-.5.2-.3.2-.6,0-1l-16.4-35.8,15.5-31.9c.2-.3.1-.7,0-1-.2-.3-.5-.5-.8-.5h0Z"/>
  </g>
  <g>
    <path class="st6" d="M436.6,109.7c-12,0-20-7.6-20-18.8v-3.2c0-1.6,1.3-2.9,2.9-2.9h7.8c1.6,0,2.9,1.3,2.9,2.9v2.6c0,3.8,1.8,6.6,4.8,7.3.5.1,1,.2,1.5.2h0c2,0,3.8-.9,5-2.6,1.4-1.8,1.8-4.1,1.2-6.3-.9-3.1-3.3-5.4-7-8.1l-7.7-5.8c-5.2-3.9-10.6-9.2-10.6-19.4s6.9-18.3,18.8-18.4h.2c11.8,0,19.2,7.2,19.2,18.8v2.2c0,1.6-1.3,2.9-2.9,2.9h-7.7c-1.6,0-2.9-1.3-2.9-2.9v-2c0-4.7-2-7.2-5.8-7.2s-5.6,2.3-5.6,5.9,2.8,6.9,7,10l7.9,5.9c5.1,3.7,10.9,9.3,10.9,19.2s-7.9,19.6-20,19.6Z"/>
    <path d="M436.6,37.6c10.5,0,18.9,5.9,18.9,18.6v2.2c0,1.4-1.2,2.6-2.6,2.6h-7.7c-1.4,0-2.6-1.2-2.6-2.6v-2c0-5.1-2.3-7.4-6-7.4s-5.9,2.2-5.9,6.1,2.8,7.1,7.1,10.2l7.9,5.9c6,4.5,10.8,10,10.8,19,0,12.9-8.9,19.3-19.8,19.3s-19.8-6.5-19.8-18.6v-3.2c0-1.4,1.2-2.6,2.6-2.6h7.8c1.4,0,2.6,1.2,2.6,2.6v2.6c0,4.1,2,6.8,5,7.6.5.1,1.1.2,1.6.2,4.4,0,7.8-4.6,6.5-9.2-.9-3.3-3.5-5.6-7.1-8.2l-7.7-5.8c-6-4.5-10.5-9.9-10.5-19.2s8.4-18.1,18.8-18.1h0M436.6,37.1h-.5c-12,.2-18.8,7-18.8,18.6s5.7,15.9,10.7,19.6l7.7,5.8c3.6,2.6,6,4.9,6.9,7.9.6,2.1.2,4.4-1.1,6.1-1.2,1.6-3,2.5-4.8,2.5s-1,0-1.5-.2c-2.9-.7-4.6-3.4-4.6-7.1v-2.6c0-1.7-1.4-3.1-3.1-3.1h-7.8c-1.7,0-3.1,1.4-3.1,3.1v3.2c0,11.4,8.1,19.1,20.3,19.1s20.3-7.8,20.3-19.8-5.9-15.7-11-19.4l-7.9-5.9c-4.1-3.1-6.9-5.4-6.9-9.8s2.1-5.6,5.4-5.6,5.5,3.8,5.5,6.9v2c0,1.7,1.4,3.1,3.1,3.1h7.7c1.7,0,3.1-1.4,3.1-3.1v-2.2c0-11.8-7.4-19.1-19.4-19.1h0Z"/>
  </g>
  <path class="st7" d="M294.2,31.3h-59.6c-6.9,0-12.4,5.6-12.4,12.4v59.6c0,6.9,5.6,12.4,12.4,12.4h59.6c6.9,0,12.4-5.6,12.4-12.4v-59.6c0-6.9-5.6-12.4-12.4-12.4ZM293,89.6c0,6.9-5.6,12.4-12.4,12.4h-32.3c-6.9,0-12.4-5.6-12.4-12.4v-32.3c0-6.2,4.5-11.3,10.3-12.3.7-.1,1.4-.2,2.1-.2h32.3c1.5,0,2.8.2,4.2.7,4.8,1.7,8.3,6.3,8.3,11.7v32.3Z"/>
  <path class="st1" d="M293,57.4v32.3c0,6.9-5.6,12.4-12.4,12.4h-32.3c-6.9,0-12.4-5.6-12.4-12.4v-32.3c0-6.2,4.5-11.3,10.3-12.3.7-.1,1.4-.2,2.1-.2h32.3c1.5,0,2.8.2,4.2.7,4.8,1.7,8.3,6.3,8.3,11.7Z"/>
  <path class="st12" d="M293,57.4v32.3c0,6.9-5.6,12.4-12.4,12.4h-32.3c-6.9,0-12.4-5.6-12.4-12.4v-32.3c0-6.2,4.5-11.3,10.3-12.3.7-.1,1.4-.2,2.1-.2h32.3c1.5,0,2.8.2,4.2.7,4.8,1.7,8.3,6.3,8.3,11.7Z"/>
  <path d="M262.2,28.1v3.1h-16v-3.1c0-4.4,3.6-8,8-8s4.2.9,5.7,2.3c1.5,1.5,2.3,3.5,2.3,5.7Z"/>
  <path d="M248.3,44.9h13.9v32.5c0,4.4-3.6,8-8,8s-8-3.6-8-8v-32.4c.7-.1,1.4-.2,2.1-.2Z"/>
  <path d="M284.7,28.1v3.1h-16v-3.1c0-4.4,3.6-8,8-8s4.2.9,5.7,2.3c1.4,1.5,2.3,3.5,2.3,5.7Z"/>
  <path d="M280.6,44.9c1.5,0,2.8.2,4.2.7v31.8c0,4.4-3.6,8-8,8s-8-3.6-8-8v-32.5h11.9Z"/>
  <g id="Original_Art" class="st11">
    <path class="st7" d="M-562.1,219.7h-59.6c-6.9,0-12.4,5.6-12.4,12.4v59.6c0,6.9,5.6,12.4,12.4,12.4h59.6c6.9,0,12.4-5.6,12.4-12.4v-59.6c0-6.9-5.6-12.4-12.4-12.4ZM-563.3,278.1c0,6.9-5.6,12.4-12.4,12.4h-32.3c-6.9,0-12.4-5.6-12.4-12.4v-32.3c0-6.2,4.5-11.3,10.3-12.3.7-.1,1.4-.2,2.1-.2h32.3c1.5,0,2.8.2,4.2.7,4.8,1.7,8.3,6.3,8.3,11.7v32.3Z"/>
    <path class="st1" d="M-563.3,245.8v32.3c0,6.9-5.6,12.4-12.4,12.4h-32.3c-6.9,0-12.4-5.6-12.4-12.4v-32.3c0-6.2,4.5-11.3,10.3-12.3.7-.1,1.4-.2,2.1-.2h32.3c1.5,0,2.8.2,4.2.7,4.8,1.7,8.3,6.3,8.3,11.7Z"/>
    <path class="st12" d="M-563.3,245.8v32.3c0,6.9-5.6,12.4-12.4,12.4h-32.3c-6.9,0-12.4-5.6-12.4-12.4v-32.3c0-6.2,4.5-11.3,10.3-12.3.7-.1,1.4-.2,2.1-.2h32.3c1.5,0,2.8.2,4.2.7,4.8,1.7,8.3,6.3,8.3,11.7Z"/>
    <path d="M-594.1,216.6v3.1h-16v-3.1c0-4.4,3.6-8,8-8s4.2.9,5.7,2.3c1.5,1.5,2.3,3.5,2.3,5.7Z"/>
    <path d="M-608,233.4h13.9v32.5c0,4.4-3.6,8-8,8s-8-3.6-8-8v-32.4c.7-.1,1.4-.2,2.1-.2Z"/>
    <path d="M-571.6,216.6v3.1h-16v-3.1c0-4.4,3.6-8,8-8s4.2.9,5.7,2.3c1.4,1.5,2.3,3.5,2.3,5.7Z"/>
    <path d="M-575.7,233.4c1.5,0,2.8.2,4.2.7v31.8c0,4.4-3.6,8-8,8s-8-3.6-8-8v-32.5h11.9Z"/>
  </g>
  <g id="Generative_Object__x28_0_x2C__0_x29_">
    <path class="st7" d="M-562.1,219.7h-59.6c-6.9,0-12.4,5.6-12.4,12.4v59.6c0,6.9,5.6,12.4,12.4,12.4h59.6c6.9,0,12.4-5.6,12.4-12.4v-59.6c0-6.9-5.6-12.4-12.4-12.4ZM-563.3,278.1c0,6.9-5.6,12.4-12.4,12.4h-32.3c-6.9,0-12.4-5.6-12.4-12.4v-32.3c0-6.2,4.5-11.3,10.3-12.3.7-.1,1.4-.2,2.1-.2h32.3c1.5,0,2.8.2,4.2.7,4.8,1.7,8.3,6.3,8.3,11.7v32.3Z"/>
    <path class="st1" d="M-563.3,245.8v32.3c0,6.9-5.6,12.4-12.4,12.4h-32.3c-6.9,0-12.4-5.6-12.4-12.4v-32.3c0-6.2,4.5-11.3,10.3-12.3.7-.1,1.4-.2,2.1-.2h32.3c1.5,0,2.8.2,4.2.7,4.8,1.7,8.3,6.3,8.3,11.7Z"/>
    <path class="st12" d="M-563.3,245.8v32.3c0,6.9-5.6,12.4-12.4,12.4h-32.3c-6.9,0-12.4-5.6-12.4-12.4v-32.3c0-6.2,4.5-11.3,10.3-12.3.7-.1,1.4-.2,2.1-.2h32.3c1.5,0,2.8.2,4.2.7,4.8,1.7,8.3,6.3,8.3,11.7Z"/>
    <path d="M-594.1,216.6v3.1h-16v-3.1c0-4.4,3.6-8,8-8s4.2.9,5.7,2.3c1.5,1.5,2.3,3.5,2.3,5.7Z"/>
    <path d="M-608,233.4h13.9v32.5c0,4.4-3.6,8-8,8s-8-3.6-8-8v-32.4c.7-.1,1.4-.2,2.1-.2Z"/>
    <path d="M-571.6,216.6v3.1h-16v-3.1c0-4.4,3.6-8,8-8s4.2.9,5.7,2.3c1.4,1.5,2.3,3.5,2.3,5.7Z"/>
    <path d="M-575.7,233.4c1.5,0,2.8.2,4.2.7v31.8c0,4.4-3.6,8-8,8s-8-3.6-8-8v-32.5h11.9Z"/>
  </g>
  <g>
    <path class="st6" d="M-38.8-72.5c-.2,0-.4,0-.7,0-9.1-.3-13.4-6.3-13.4-18.9v-16.2c0-.8.7-1.5,1.5-1.5s.7.1,1,.4c1.2,1,2.6,2.1,4,3.1l9,6.3c5.1,3.5,10.2,8.1,10.2,15.8s-4,10.7-10.5,11.1h0s-.6,0-.6,0c-.2,0-.4,0-.7,0Z"/>
    <path d="M-51.3-109c.3,0,.6,0,.8.3,1.3,1.1,2.7,2.1,4.1,3.1l9,6.3c5.8,4,10.1,8.5,10.1,15.6s-4.2,10.7-10.9,10.9h0c-.2,0-.4,0-.7,0s-.4,0-.7,0c-8.3-.2-13.1-5.2-13.1-18.7v-16.2c0-.8.6-1.3,1.3-1.3M-51.3-109.5c-1,0-1.8.8-1.8,1.8v16.2c0,12.8,4.3,18.9,13.6,19.2.2,0,.4,0,.7,0s.5,0,.7,0h1.1s0,0,0,0c6.3-.7,10.2-4.9,10.2-11.3s-5.2-12.5-10.4-16l-9-6.3c-1.4-1-2.8-2-4-3.1-.3-.3-.7-.4-1.1-.4h0Z"/>
  </g>
  <g>
    <path class="st6" d="M-26.3-105.4c-.3,0-.7-.1-.9-.3-.8-.6-1.7-1.3-2.7-2l-9.2-6.6c-6.1-4.1-10.1-8.2-10.1-14.7s3.5-10.4,9.7-10.7c.1,0,.2,0,.3,0h.9c9.3.2,13.6,6.2,13.6,18.9v13.9c0,.8-.7,1.5-1.5,1.5Z"/>
    <path d="M-38.4-139.5c8.4.2,13.4,5.2,13.4,18.7v13.9h0c0,.7-.6,1.3-1.3,1.3s-.5,0-.8-.3c-.9-.7-1.8-1.4-2.7-2l-9.2-6.6c-5.6-3.8-10-7.7-10-14.5s3.8-10.2,9.5-10.5h0c0,0,.2,0,.3,0h.9M-38.4-140h-.9c0,0-.2,0-.3,0h0c-6.3.3-9.9,4.3-9.9,11s5.3,11.5,10.2,14.9l9.2,6.6c1,.7,1.9,1.4,2.7,2,.3.2.7.4,1.1.4,1,0,1.8-.8,1.8-1.8v-.8h0s0-13.1,0-13.1c0-12.7-4.5-19-13.9-19.2h0Z"/>
  </g>
  <path class="st7" d="M310.7,236.8h-89c-4.4,0-8,3.6-8,8v89c0,4.4,3.6,8,8,8h89c4.4,0,8-3.6,8-8v-89c0-4.4-3.6-8-8-8ZM299,314.1c0,4.4-3.6,8-8,8h-49.7c-4.4,0-8-3.6-8-8v-49.7c0-4.4,3.6-8,8-8h49.7c4.4,0,8,3.6,8,8v49.7Z"/>
  <path class="st7" d="M299,264.4v49.7c0,4.4-3.6,8-8,8h-49.7c-4.4,0-8-3.6-8-8v-49.7c0-4.4,3.6-8,8-8h49.7c4.4,0,8,3.6,8,8Z"/>
  <path class="st12" d="M299,264.4v49.7c0,4.4-3.6,8-8,8h-49.7c-4.4,0-8-3.6-8-8v-49.7c0-4.4,3.6-8,8-8h49.7c4.4,0,8,3.6,8,8Z"/>
  <path class="st5" d="M262.2,231.5v5.2h-16v-5.2c0-4.4,3.6-8,8-8s4.2.9,5.7,2.3c1.4,1.5,2.3,3.5,2.3,5.7Z"/>
  <path class="st5" d="M246.2,256.4h16v32.9c0,4.4-3.6,8-8,8s-8-3.6-8-8v-32.9Z"/>
  <path class="st5" d="M286.2,231.5v5.2h-16v-5.2c0-4.4,3.6-8,8-8s4.2.9,5.7,2.3c1.5,1.5,2.3,3.5,2.3,5.7Z"/>
  <path class="st5" d="M270.2,256.4h16v32.9c0,4.4-3.6,8-8,8s-8-3.6-8-8v-32.9Z"/>
  <g>
    <path class="st10" d="M265.6-569.4v3.8h-16v-3.8c0-4.4,3.6-8,8-8s8,3.6,8,8Z"/>
    <path class="st10" d="M253.5-552h12.1v29.2c0,4.2-3.2,8-7.5,8.2-4.7.3-8.5-3.4-8.5-8v-28.8c.6-.2,1.2-.3,1.8-.4.7-.1,1.4-.2,2.1-.2Z"/>
    <path class="st10" d="M289.6-569.4v3.8h-16v-3.8c0-4.4,3.6-8,8-8s8,3.6,8,8Z"/>
    <path class="st10" d="M285.7-552c1.4,0,2.7.2,3.9.6v28.8c0,4.6-3.9,8.3-8.5,8-4.3-.3-7.5-4-7.5-8.2v-29.2h12.1Z"/>
  </g>
  <path class="st7" d="M490.2,236.8h-89c-4.4,0-8,3.6-8,8v89c0,4.4,3.6,8,8,8h89c4.4,0,8-3.6,8-8v-89c0-4.4-3.6-8-8-8ZM478.6,314.1c0,4.4-3.6,8-8,8h-49.7c-4.4,0-8-3.6-8-8v-49.7c0-4.4,3.6-8,8-8h49.7c4.4,0,8,3.6,8,8v49.7Z"/>
  <path class="st7" d="M478.6,264.4v49.7c0,4.4-3.6,8-8,8h-49.7c-4.4,0-8-3.6-8-8v-49.7c0-4.4,3.6-8,8-8h49.7c4.4,0,8,3.6,8,8Z"/>
  <path class="st12" d="M478.6,264.4v49.7c0,4.4-3.6,8-8,8h-49.7c-4.4,0-8-3.6-8-8v-49.7c0-4.4,3.6-8,8-8h49.7c4.4,0,8,3.6,8,8Z"/>
  <path d="M441.7,231.5v5.2h-16v-5.2c0-4.4,3.6-8,8-8s4.2.9,5.7,2.3c1.4,1.5,2.3,3.5,2.3,5.7Z"/>
  <rect x="425.7" y="256.4" width="16" height="65.8"/>
  <path d="M465.7,231.5v5.2h-16v-5.2c0-4.4,3.6-8,8-8s4.2.9,5.7,2.3,2.3,3.5,2.3,5.7Z"/>
  <rect x="449.7" y="256.4" width="16" height="65.8"/>
  <path class="st2" d="M-28.5,30.3c-.5,3.2-3.4,5.5-6.5,6,0,0-12.8,2-12.8,2-2.6.2-9,1.8-11.5,1.3-2.6-.5-4.6-2.4-4.6-5.2.1-1.2-.4-17,.4-17.5,1.2-3.9,5.5-5.7,9.3-5.9,1.6-.3,5.2-.8,6.8-1,1.9-.3,6-.9,7.8-1.2,4.2-.9,9.7-1.2,11,3.9,0,0,0,17.6,0,17.6Z"/>
  <path class="st9" d="M-285.8-150.2v47.9c0,5-3.5,9.3-8.3,10.3l-48.4,10.3c-3.3.7-6.5-.2-8.8-2.1h0c-.5-.5-1.1-1-1.5-1.5-1.5-1.8-2.4-4.1-2.4-6.7v-47.9c0-5,3.5-9.3,8.3-10.3l31.5-6.7,16.9-3.6c3.2-.7,6.4.2,8.8,2.1h0c2.4,1.9,4,4.9,4,8.2Z"/>
  <path class="st2" d="M-335.3-135.1l29.3-6.2c3.4-.7,6.5,1.8,6.5,5.3v27.8c0,2.5-1.8,4.7-4.3,5.3l-29.3,6.2c-3.4.7-6.5-1.8-6.5-5.3v-27.8c0-2.5,1.8-4.7,4.3-5.3Z"/>
  <line class="st0" x1="-318.4" y1="-187.1" x2="-318.5" y2="-187.3"/>
  <line class="st0" x1="-289.8" y1="-158.4" x2="-289.8" y2="-158.4"/>
  <path class="st3" d="M-289.8-158.4c-2.3-1.9-5.5-2.8-8.8-2.1l-16.9,3.6-31.5,6.7c-4.9,1-8.3,5.3-8.3,10.3v47.9c0,2.6.9,4.9,2.4,6.7l-28.5-28.5c-2.1-1.9-3.5-4.7-3.5-7.8v-47.9c0-5,3.5-9.3,8.4-10.3l48.4-10.3c2.5-.5,4.9-.2,6.9.9,1.1.5,2,1.2,2.9,2.1l28.6,28.7Z"/>
  <polyline class="st0" points="-352.9 -85.3 -351.4 -83.8 -351.4 -83.7"/>
  <circle class="st3" cx="-395.3" cy="-227.5" r="8.6"/>
  <path d="M-348.2-161.3v-19c0-2.8,2-5.3,4.8-5.9h0c3.7-.8,7.3,2.1,7.3,5.9v16.5l-12,2.6Z"/>
  <path d="M-329.9-165.2v-19c0-2.8,2-5.3,4.8-5.9h0c3.7-.8,7.3,2.1,7.3,5.9v16.5l-12,2.6Z"/>
  <path d="M-350.9-165.2v-19c0-2.8,2-5.3,4.8-5.9h0c3.7-.8,7.3,2.1,7.3,5.9v16.5l-12,2.6Z"/>
  <path d="M-332.6-169.1v-19c0-2.8,2-5.3,4.8-5.9h0c3.7-.8,7.3,2.1,7.3,5.9v16.5l-12,2.6Z"/>
</svg>