<?xml version="1.0" encoding="UTF-8"?>
<svg id="Layer_1" data-name="Layer 1" xmlns="http://www.w3.org/2000/svg" viewBox="0 0 486.63 239.21">
  <defs>
    <style>
      .cls-1 {
        fill: #141414;
      }
    </style>
  </defs>
  <path class="cls-1" d="M134.02,109.67l51.2-81.69c1.19-1.9-.17-4.36-2.41-4.36h-27.11c-1,0-1.92.53-2.44,1.38l-35.02,58.37c-1.49,2.48-5.29,1.42-5.29-1.46h0c-.02-43.69-21.23-65.41-56.48-65.41h-.26c-.46,0-.92,0-1.39.02-.54.02-1.08.02-1.61.05h-.02c-.53.02-1.07.05-1.6.08-.38.02-.75.05-1.12.07-.76.06-1.52.14-2.28.22C17.92,20.17,0,41.76,0,81.91v65.92c0,43.39,20.67,64.87,55.15,65.4.44,0,.88.02,1.32.02s.89,0,1.32-.02c34.46-.53,55.15-22,55.15-65.4v-.89c0-2.89,3.81-3.94,5.29-1.46l35.49,59.26c.52.86,1.44,1.38,2.44,1.38h29.44c2.22,0,3.59-2.43,2.43-4.33l-54.04-89.14c-.56-.92-.55-2.08.02-2.99h0ZM57.93,189.71c-.49.02-.98.02-1.47.02s-.98,0-1.46-.02c-18.53-.54-29.46-11.75-29.46-41.89v-36.44c0-2.42,2.83-3.74,4.67-2.18,2.89,2.44,5.95,4.75,9.13,6.94l20.18,14.06c13.03,8.94,22.74,19.16,22.74,35,0,14.85-9.35,23.95-24.34,24.5h0ZM87.38,113.08c0,2.37-2.73,3.72-4.6,2.25-1.98-1.56-4.04-3.07-6.14-4.55l-20.7-14.82c-12.53-8.43-22.49-17.37-22.49-32.45s8.51-22.87,21.23-23.47h.07c.18-.02.38-.02.57-.02h2.03c18.87.35,30.01,11.71,30.01,41.9v31.17h0Z"/>
  <g>
    <path d="M207.31,78.3v-23.65c0-16.2,8.29-24.21,21.88-24.21s21.88,8.01,21.88,24.21v23.65c0,16.29-8.29,24.21-21.88,24.21s-21.88-7.91-21.88-24.21h0ZM237.57,78.58v-24.21c0-9.12-3.17-12.1-8.38-12.1s-8.38,2.98-8.38,12.1v24.21c0,9.12,3.07,12.1,8.38,12.1s8.38-2.98,8.38-12.1Z"/>
    <path d="M275.69,62.83l13.42-30.97c.08-.19.26-.31.47-.31h13.19c.37,0,.62.39.46.73l-15.56,32.02c-.07.14-.07.3,0,.43l16.42,35.93c.15.34-.09.72-.46.72h-14.24c-.2,0-.39-.12-.47-.31l-13.23-31.1c-.22-.51-.98-.35-.98.2v30.71c0,.28-.23.51-.51.51h-12.39c-.28,0-.51-.23-.51-.51V32.07c0-.28.23-.51.51-.51h12.39c.28,0,.51.23.51.51v30.56c0,.55.75.71.97.2h0Z"/>
    <path d="M326.2,30.44c10.52,0,18.99,5.96,18.99,18.62v4.33c0,.28-.23.51-.51.51h-11.93c-.28,0-.51-.23-.51-.51v-4.15c0-5.12-2.33-7.45-6.05-7.45-3.45,0-5.87,2.23-5.87,6.15,0,4.66,2.79,7.08,7.08,10.24l7.92,5.87c6.05,4.47,10.8,10.06,10.8,19.09,0,12.94-8.94,19.37-19.83,19.37s-19.83-6.52-19.83-18.62v-5.27c0-.28.23-.51.51-.51h12.02c.28,0,.51.23.51.51v4.71c0,4.84,2.79,7.82,6.8,7.82s6.7-2.42,6.7-6.42c0-4.93-2.98-7.82-7.45-11.08l-7.73-5.77c-6.05-4.47-10.52-9.96-10.52-19.27,0-13.04,8.47-18.16,18.9-18.16h0Z"/>
    <path d="M251.07,154.29v22.9c0,15.64-8.29,23.46-21.88,23.46h-20.44c-.28,0-.51-.23-.51-.51v-68.82c0-.28.23-.51.51-.51h20.44c13.59,0,21.88,7.82,21.88,23.46v.02ZM237.57,177.38v-23.28c0-8.57-3.17-11.36-8.38-11.36h-6.94c-.28,0-.51.23-.51.51v44.98c0,.28.23.51.51.51h6.94c5.21,0,8.38-2.79,8.38-11.36h0Z"/>
    <path d="M272.07,181.1c-.32,0-.57.3-.5.61,1.17,5.76,4.94,8.88,10.87,8.88,4.14,0,6.89-1.48,8.25-4.36.08-.18.26-.3.45-.3h12.68c.34,0,.59.34.49.66-3.05,9.81-11.04,14.98-22.24,14.98-13.69,0-23.56-9.96-23.56-24.21s9.87-24.21,23.56-24.21,23.56,9.96,23.56,24.21c0,1.14-.07,2.2-.15,3.26-.02.26-.24.47-.51.47h-32.9ZM272.18,173.19h19.78c.32,0,.57-.31.5-.62-1.26-5.46-4.92-8.32-10.39-8.32s-9.14,2.85-10.39,8.32c-.07.32.18.62.5.62h0Z"/>
    <path d="M332.62,201.59c-11.8,0-20.91-5.76-21.22-15.77,0-.29.23-.53.52-.53h12.02c.27,0,.48.22.5.49.25,4.23,3.69,6.31,8.09,6.31,4.1,0,6.61-1.49,6.61-4.47,0-9.12-26.82-.93-26.82-20.11,0-8.94,8.19-14.34,18.9-14.34,11.32,0,19.86,6.62,20.19,15.21.01.29-.23.53-.52.53h-12.02c-.27,0-.48-.21-.5-.49-.26-3.3-3.15-5.75-7.06-5.75s-6.15,1.58-6.15,4.28c0,8.19,27.19.65,27.19,19.92,0,9.22-8.47,14.71-19.74,14.71h.01Z"/>
    <path d="M359.62,138.18c0-4.38,3.45-7.73,8.01-7.73s8.1,3.35,8.1,7.73-3.35,7.82-8.1,7.82-8.01-3.45-8.01-7.82ZM360.92,200.15v-45.54c0-.28.23-.51.51-.51h12.48c.28,0,.51.23.51.51v45.54c0,.28-.23.51-.51.51h-12.48c-.28,0-.51-.23-.51-.51h0Z"/>
    <path d="M382.8,177.38c0-14.53,9.03-24.21,21.6-24.21,5.22,0,9.73,2.12,13.1,5.78.31.34.87.11.87-.35v-4c0-.28.23-.51.51-.51h12.3c.28,0,.51.23.51.51v46.51c0,14.25-10.61,23.74-23.93,23.74s-22.04-7.93-23.93-19.89c-.05-.31.2-.59.51-.59h12.11c.24,0,.45.18.49.42.98,5.35,5.01,8.89,10.54,8.89,6.8,0,10.71-5.03,10.71-12.38v-4.92c0-.45-.55-.68-.87-.36-3.36,3.51-7.78,5.55-12.92,5.55-12.57,0-21.6-9.68-21.6-24.21v.02ZM418.18,177.38c0-7.36-4.66-12.2-11.08-12.2s-11.08,4.84-11.08,12.2,4.75,12.2,11.08,12.2,11.08-4.84,11.08-12.2Z"/>
    <path d="M464.73,164.34c-5.31,0-8.38,3.63-8.38,10.61v25.19c0,.28-.23.51-.51.51h-12.48c-.28,0-.51-.23-.51-.51v-45.54c0-.28.23-.51.51-.51h12.21c.28,0,.51.23.51.51v4.56c0,.5.63.69.92.29,2.89-4.04,7.41-6.29,12.68-6.29,9.68,0,16.95,6.24,16.95,18.71v28.26c0,.28-.23.51-.51.51h-12.49c-.28,0-.51-.23-.51-.51v-25.19c0-6.98-3.07-10.61-8.38-10.61h0Z"/>
  </g>
</svg>