<?xml version="1.0" encoding="UTF-8"?>
<svg id="Layer_1" data-name="Layer 1" xmlns="http://www.w3.org/2000/svg" viewBox="0 0 621.64 239.21">
  <defs>
    <style>
      .cls-1 {
        fill: #231826;
      }
    </style>
  </defs>
  <g>
    <path class="cls-1" d="M246.41,81.83v-33.62c0-23.03,11.78-34.41,31.1-34.41s31.1,11.38,31.1,34.41v33.62c0,23.16-11.78,34.41-31.1,34.41s-31.1-11.25-31.1-34.41ZM289.42,82.23v-34.41c0-12.97-4.5-17.21-11.91-17.21s-11.91,4.24-11.91,17.21v34.41c0,12.97,4.37,17.21,11.91,17.21s11.91-4.24,11.91-17.21Z"/>
    <path class="cls-1" d="M346.9,52.28l15.35-35.43c.39-.89,1.26-1.46,2.23-1.46h14.9c1.8,0,2.97,1.88,2.19,3.49l-20.57,42.33c-.32.65-.33,1.41-.02,2.07l21.91,47.93c.74,1.61-.44,3.44-2.21,3.44h-16.45c-.97,0-1.86-.58-2.24-1.48l-15.09-35.46c-1.04-2.44-4.67-1.7-4.67.95v33.56c0,1.34-1.09,2.43-2.43,2.43h-14.2c-1.34,0-2.43-1.09-2.43-2.43V17.82c0-1.34,1.09-2.43,2.43-2.43h14.2c1.34,0,2.43,1.09,2.43,2.43v33.49c0,2.64,3.61,3.39,4.66.97Z"/>
    <path class="cls-1" d="M415.43,13.8c14.96,0,27,8.47,27,26.47v4.45c0,1.34-1.09,2.43-2.43,2.43h-13.54c-1.34,0-2.43-1.09-2.43-2.43v-4.19c0-7.28-3.31-10.59-8.6-10.59-4.9,0-8.34,3.18-8.34,8.74,0,6.62,3.97,10.06,10.06,14.56l11.25,8.34c8.6,6.35,15.35,14.29,15.35,27.13,0,18.4-12.71,27.53-28.19,27.53s-28.19-9.26-28.19-26.47v-5.77c0-1.34,1.09-2.43,2.43-2.43h13.67c1.34,0,2.43,1.09,2.43,2.43v4.98c0,6.88,3.97,11.12,9.66,11.12s9.53-3.44,9.53-9.13c0-7.02-4.24-11.12-10.59-15.75l-10.99-8.21c-8.6-6.35-14.96-14.16-14.96-27.4,0-18.53,12.04-25.81,26.87-25.81Z"/>
    <path class="cls-1" d="M272.08,125.09c14.96,0,27,8.47,27,26.47v4.45c0,1.34-1.09,2.43-2.43,2.43h-13.54c-1.34,0-2.43-1.09-2.43-2.43v-4.19c0-7.28-3.31-10.59-8.6-10.59-4.9,0-8.34,3.18-8.34,8.74,0,6.62,3.97,10.06,10.06,14.56l11.25,8.34c8.6,6.35,15.35,14.29,15.35,27.13,0,18.4-12.71,27.53-28.19,27.53s-28.19-9.26-28.19-26.47v-5.77c0-1.34,1.09-2.43,2.43-2.43h13.67c1.34,0,2.43,1.09,2.43,2.43v4.98c0,6.88,3.97,11.12,9.66,11.12s9.53-3.44,9.53-9.13c0-7.02-4.24-11.12-10.59-15.75l-10.99-8.21c-8.6-6.35-14.96-14.16-14.96-27.4,0-18.53,12.04-25.81,26.87-25.81Z"/>
    <path class="cls-1" d="M343.95,211.13c1.43,0,2.95-.19,4.46-.51s2.95.8,2.95,2.35v10.85c0,1.13-.78,2.12-1.88,2.37-2.62.6-6.1,1.1-9.24,1.1-14.03,0-24.35-5.43-24.35-23.82v-25.63c0-1.34-1.09-2.43-2.43-2.43h-4.67c-1.34,0-2.43-1.09-2.43-2.43v-10.76c0-1.34,1.09-2.43,2.43-2.43h4.67c1.34,0,2.43-1.09,2.43-2.43v-14.73c0-1.34,1.09-2.43,2.43-2.43h14.33c1.34,0,2.43,1.09,2.43,2.43v14.73c0,1.34,1.09,2.43,2.43,2.43h11.42c1.34,0,2.43,1.09,2.43,2.43v10.76c0,1.34-1.09,2.43-2.43,2.43h-11.42c-1.34,0-2.43,1.09-2.43,2.43v24.57c0,5.96,2.78,8.74,8.87,8.74Z"/>
    <path class="cls-1" d="M393.72,211.39c7.28,0,11.52-5.16,11.52-15.09v-34.1c0-1.34,1.09-2.43,2.43-2.43h14.33c1.34,0,2.43,1.09,2.43,2.43v61.32c0,1.34-1.09,2.43-2.43,2.43h-13.93c-1.34,0-2.43-1.09-2.43-2.43v-.02c0-2.1-2.52-3.24-4.05-1.81-3.89,3.63-9.01,5.59-14.87,5.59-13.63,0-23.82-8.87-23.82-26.6v-38.47c0-1.34,1.09-2.43,2.43-2.43h14.33c1.34,0,2.43,1.09,2.43,2.43v34.1c0,9.93,4.37,15.09,11.65,15.09Z"/>
    <path class="cls-1" d="M486.64,161.96v-32.85c0-1.34,1.09-2.43,2.43-2.43h14.33c1.34,0,2.43,1.09,2.43,2.43v94.41c0,1.34-1.09,2.43-2.43,2.43h-14.07c-1.34,0-2.43-1.09-2.43-2.43h0c0-2.07-2.4-3.17-4-1.85-4.39,3.59-9.78,5.61-15.85,5.61-17.87,0-30.71-13.77-30.71-34.41s12.84-34.41,30.71-34.41c5.97,0,11.27,1.95,15.62,5.39,1.61,1.27,3.97.17,3.97-1.88ZM455.13,192.86c0,10.46,6.75,17.34,15.75,17.34s15.75-6.88,15.75-17.34-6.62-17.34-15.75-17.34-15.75,6.88-15.75,17.34Z"/>
    <path class="cls-1" d="M519.86,137.14c0-6.22,4.9-10.99,11.38-10.99s11.52,4.76,11.52,10.99-4.77,11.12-11.52,11.12-11.38-4.9-11.38-11.12ZM521.71,223.52v-61.32c0-1.34,1.09-2.43,2.43-2.43h14.33c1.34,0,2.43,1.09,2.43,2.43v61.32c0,1.34-1.09,2.43-2.43,2.43h-14.33c-1.34,0-2.43-1.09-2.43-2.43Z"/>
    <path class="cls-1" d="M552.82,192.86c0-20.38,14.69-34.41,34.41-34.41s34.41,14.03,34.41,34.41-14.69,34.41-34.41,34.41-34.41-14.03-34.41-34.41ZM602.98,192.86c0-10.32-6.75-17.34-15.75-17.34s-15.75,7.02-15.75,17.34,6.75,17.34,15.75,17.34,15.75-7.02,15.75-17.34Z"/>
  </g>
  <path class="cls-1" d="M162.95,113.29L225.2,13.96c1.45-2.31-.21-5.3-2.93-5.3h-32.96c-1.22,0-2.34.64-2.97,1.68l-42.58,70.97c-1.81,3.01-6.43,1.73-6.43-1.78h0C137.31,26.41,111.52,0,68.66,0h-.32c-.56,0-1.12,0-1.69.02-.66.02-1.31.03-1.96.06h-.02c-.65.02-1.3.06-1.94.1-.46.02-.91.06-1.36.09-.93.07-1.85.17-2.77.27C21.79,4.47,0,30.71,0,79.53v80.15c0,52.76,25.13,78.87,67.05,79.52.53,0,1.07.02,1.61.02s1.08,0,1.61-.02c41.9-.65,67.05-26.75,67.05-79.52v-1.08c0-3.51,4.63-4.79,6.43-1.78l43.15,72.05c.63,1.04,1.75,1.68,2.97,1.68h35.79c2.7,0,4.36-2.95,2.96-5.26l-65.7-108.38c-.68-1.12-.67-2.53.03-3.63ZM70.44,210.6c-.59.02-1.19.03-1.79.03s-1.19,0-1.78-.02c-22.53-.66-35.82-14.29-35.82-50.93v-44.31c0-2.94,3.44-4.55,5.68-2.65,3.51,2.97,7.24,5.77,11.1,8.44l24.54,17.09c15.84,10.87,27.65,23.3,27.65,42.56,0,18.06-11.37,29.12-29.59,29.79ZM106.24,117.43c0,2.88-3.32,4.52-5.59,2.73-2.41-1.9-4.91-3.73-7.46-5.53l-25.17-18.02c-15.23-10.25-27.34-21.12-27.34-39.46s10.35-27.81,25.81-28.54h.09c.22-.02.46-.02.69-.02.27,0,.52,0,.79,0,.09,0,.18,0,.27,0,.46,0,.92,0,1.41,0,22.94.42,36.49,14.24,36.49,50.94v37.9Z"/>
</svg>